<svg xmlns="http://www.w3.org/2000/svg" xmlns:xlink="http://www.w3.org/1999/xlink" width="500" zoomAndPan="magnify" viewBox="0 0 375 374.999991" height="500" preserveAspectRatio="xMidYMid meet" version="1.0"><defs><g/><clipPath id="fbc3a371cc"><path d="M 37.5 118.054688 L 337.5 118.054688 L 337.5 234.929688 L 37.5 234.929688 Z M 37.5 118.054688 " clip-rule="nonzero"/></clipPath></defs><g clip-path="url(#fbc3a371cc)"><path fill="#000000" d="M 37.5 118.054688 L 337.449219 118.054688 L 337.449219 234.929688 L 37.5 234.929688 Z M 37.5 118.054688 " fill-opacity="1" fill-rule="nonzero"/></g><g fill="#ffffff" fill-opacity="1"><g transform="translate(58.201171, 180.320671)"><g><path d="M 33.859375 0 L 23.125 0 L 16.171875 -13.453125 L 13.359375 -11.765625 L 13.359375 0 L 3.796875 0 L 3.796875 -35.1875 L 13.359375 -35.1875 L 13.359375 -19.90625 C 13.835938 -20.84375 14.804688 -22.34375 16.265625 -24.40625 L 23.65625 -35.1875 L 34.046875 -35.1875 L 22.953125 -19.421875 Z M 33.859375 0 "/></g></g></g><g fill="#ffffff" fill-opacity="1"><g transform="translate(92.055287, 180.320671)"><g><path d="M 24.6875 0 L 3.796875 0 L 3.796875 -35.1875 L 24.6875 -35.1875 L 24.6875 -27.546875 L 13.3125 -27.546875 L 13.3125 -22.015625 L 23.84375 -22.015625 L 23.84375 -14.390625 L 13.3125 -14.390625 L 13.3125 -7.75 L 24.6875 -7.75 Z M 24.6875 0 "/></g></g></g><g fill="#ffffff" fill-opacity="1"><g transform="translate(119.100078, 180.320671)"><g><path d="M 16.359375 -22.140625 L 22.421875 -35.1875 L 32.71875 -35.1875 L 21.15625 -13.734375 L 21.15625 0 L 11.578125 0 L 11.578125 -13.453125 L 0 -35.1875 L 10.34375 -35.1875 Z M 16.359375 -22.140625 "/></g></g></g><g fill="#ffffff" fill-opacity="1"><g transform="translate(151.823311, 180.320671)"><g><path d="M 26.8125 -10.6875 C 26.8125 -8.5 26.253906 -6.554688 25.140625 -4.859375 C 24.035156 -3.171875 22.441406 -1.859375 20.359375 -0.921875 C 18.273438 0.015625 15.828125 0.484375 13.015625 0.484375 C 10.671875 0.484375 8.703125 0.320312 7.109375 0 C 5.523438 -0.332031 3.878906 -0.910156 2.171875 -1.734375 L 2.171875 -10.203125 C 3.984375 -9.273438 5.863281 -8.550781 7.8125 -8.03125 C 9.769531 -7.507812 11.566406 -7.25 13.203125 -7.25 C 14.617188 -7.25 15.65625 -7.488281 16.3125 -7.96875 C 16.96875 -8.457031 17.296875 -9.085938 17.296875 -9.859375 C 17.296875 -10.347656 17.160156 -10.769531 16.890625 -11.125 C 16.628906 -11.488281 16.207031 -11.851562 15.625 -12.21875 C 15.039062 -12.59375 13.484375 -13.347656 10.953125 -14.484375 C 8.648438 -15.523438 6.925781 -16.535156 5.78125 -17.515625 C 4.632812 -18.492188 3.785156 -19.613281 3.234375 -20.875 C 2.679688 -22.144531 2.40625 -23.648438 2.40625 -25.390625 C 2.40625 -28.628906 3.582031 -31.15625 5.9375 -32.96875 C 8.300781 -34.78125 11.546875 -35.6875 15.671875 -35.6875 C 19.304688 -35.6875 23.019531 -34.84375 26.8125 -33.15625 L 23.890625 -25.8125 C 20.609375 -27.320312 17.769531 -28.078125 15.375 -28.078125 C 14.144531 -28.078125 13.25 -27.859375 12.6875 -27.421875 C 12.125 -26.992188 11.84375 -26.457031 11.84375 -25.8125 C 11.84375 -25.125 12.195312 -24.507812 12.90625 -23.96875 C 13.625 -23.425781 15.5625 -22.429688 18.71875 -20.984375 C 21.75 -19.617188 23.851562 -18.15625 25.03125 -16.59375 C 26.21875 -15.03125 26.8125 -13.0625 26.8125 -10.6875 Z M 26.8125 -10.6875 "/></g></g></g><g fill="#ffffff" fill-opacity="1"><g transform="translate(180.263651, 180.320671)"><g><path d="M 19.328125 0 L 9.8125 0 L 9.8125 -27.40625 L 1.234375 -27.40625 L 1.234375 -35.1875 L 27.890625 -35.1875 L 27.890625 -27.40625 L 19.328125 -27.40625 Z M 19.328125 0 "/></g></g></g><g fill="#ffffff" fill-opacity="1"><g transform="translate(209.377705, 180.320671)"><g><path d="M 36.71875 -17.640625 C 36.71875 -11.722656 35.265625 -7.222656 32.359375 -4.140625 C 29.460938 -1.054688 25.210938 0.484375 19.609375 0.484375 C 14.085938 0.484375 9.851562 -1.0625 6.90625 -4.15625 C 3.96875 -7.257812 2.5 -11.769531 2.5 -17.6875 C 2.5 -23.539062 3.960938 -28.007812 6.890625 -31.09375 C 9.816406 -34.1875 14.070312 -35.734375 19.65625 -35.734375 C 25.257812 -35.734375 29.503906 -34.203125 32.390625 -31.140625 C 35.273438 -28.078125 36.71875 -23.578125 36.71875 -17.640625 Z M 12.515625 -17.640625 C 12.515625 -10.835938 14.878906 -7.4375 19.609375 -7.4375 C 22.015625 -7.4375 23.796875 -8.257812 24.953125 -9.90625 C 26.117188 -11.5625 26.703125 -14.140625 26.703125 -17.640625 C 26.703125 -21.148438 26.113281 -23.742188 24.9375 -25.421875 C 23.757812 -27.097656 22 -27.9375 19.65625 -27.9375 C 14.894531 -27.9375 12.515625 -24.503906 12.515625 -17.640625 Z M 12.515625 -17.640625 "/></g></g></g><g fill="#ffffff" fill-opacity="1"><g transform="translate(248.645586, 180.320671)"><g><path d="M 37.296875 0 L 24.828125 0 L 11.984375 -24.78125 L 11.765625 -24.78125 C 12.066406 -20.882812 12.21875 -17.910156 12.21875 -15.859375 L 12.21875 0 L 3.796875 0 L 3.796875 -35.1875 L 16.21875 -35.1875 L 29.015625 -10.734375 L 29.171875 -10.734375 C 28.941406 -14.273438 28.828125 -17.125 28.828125 -19.28125 L 28.828125 -35.1875 L 37.296875 -35.1875 Z M 37.296875 0 "/></g></g></g><g fill="#ffffff" fill-opacity="1"><g transform="translate(289.742118, 180.320671)"><g><path d="M 24.6875 0 L 3.796875 0 L 3.796875 -35.1875 L 24.6875 -35.1875 L 24.6875 -27.546875 L 13.3125 -27.546875 L 13.3125 -22.015625 L 23.84375 -22.015625 L 23.84375 -14.390625 L 13.3125 -14.390625 L 13.3125 -7.75 L 24.6875 -7.75 Z M 24.6875 0 "/></g></g></g><g fill="#ffffff" fill-opacity="1"><g transform="translate(96.647137, 216.730767)"><g><path d="M 5.46875 -8.96875 L 5.46875 0 L 2.96875 0 L 2.96875 -21.546875 L 8.875 -21.546875 C 11.519531 -21.546875 13.472656 -21.039062 14.734375 -20.03125 C 15.992188 -19.019531 16.625 -17.5 16.625 -15.46875 C 16.625 -12.613281 15.179688 -10.6875 12.296875 -9.6875 L 18.140625 0 L 15.1875 0 L 9.96875 -8.96875 Z M 5.46875 -11.109375 L 8.90625 -11.109375 C 10.675781 -11.109375 11.972656 -11.457031 12.796875 -12.15625 C 13.617188 -12.863281 14.03125 -13.921875 14.03125 -15.328125 C 14.03125 -16.753906 13.609375 -17.78125 12.765625 -18.40625 C 11.929688 -19.039062 10.582031 -19.359375 8.71875 -19.359375 L 5.46875 -19.359375 Z M 5.46875 -11.109375 "/></g></g></g><g fill="#ffffff" fill-opacity="1"><g transform="translate(123.188172, 216.730767)"><g><path d="M 21.671875 -10.796875 C 21.671875 -7.347656 20.796875 -4.632812 19.046875 -2.65625 C 17.304688 -0.6875 14.882812 0.296875 11.78125 0.296875 C 8.601562 0.296875 6.148438 -0.671875 4.421875 -2.609375 C 2.703125 -4.554688 1.84375 -7.296875 1.84375 -10.828125 C 1.84375 -14.335938 2.707031 -17.054688 4.4375 -18.984375 C 6.164062 -20.921875 8.625 -21.890625 11.8125 -21.890625 C 14.90625 -21.890625 17.320312 -20.90625 19.0625 -18.9375 C 20.800781 -16.976562 21.671875 -14.265625 21.671875 -10.796875 Z M 4.5 -10.796875 C 4.5 -7.878906 5.117188 -5.664062 6.359375 -4.15625 C 7.597656 -2.65625 9.40625 -1.90625 11.78125 -1.90625 C 14.164062 -1.90625 15.96875 -2.65625 17.1875 -4.15625 C 18.40625 -5.65625 19.015625 -7.867188 19.015625 -10.796875 C 19.015625 -13.703125 18.40625 -15.898438 17.1875 -17.390625 C 15.976562 -18.890625 14.1875 -19.640625 11.8125 -19.640625 C 9.414062 -19.640625 7.597656 -18.882812 6.359375 -17.375 C 5.117188 -15.875 4.5 -13.679688 4.5 -10.796875 Z M 4.5 -10.796875 "/></g></g></g><g fill="#ffffff" fill-opacity="1"><g transform="translate(154.578664, 216.730767)"><g><path d="M 21.671875 -10.796875 C 21.671875 -7.347656 20.796875 -4.632812 19.046875 -2.65625 C 17.304688 -0.6875 14.882812 0.296875 11.78125 0.296875 C 8.601562 0.296875 6.148438 -0.671875 4.421875 -2.609375 C 2.703125 -4.554688 1.84375 -7.296875 1.84375 -10.828125 C 1.84375 -14.335938 2.707031 -17.054688 4.4375 -18.984375 C 6.164062 -20.921875 8.625 -21.890625 11.8125 -21.890625 C 14.90625 -21.890625 17.320312 -20.90625 19.0625 -18.9375 C 20.800781 -16.976562 21.671875 -14.265625 21.671875 -10.796875 Z M 4.5 -10.796875 C 4.5 -7.878906 5.117188 -5.664062 6.359375 -4.15625 C 7.597656 -2.65625 9.40625 -1.90625 11.78125 -1.90625 C 14.164062 -1.90625 15.96875 -2.65625 17.1875 -4.15625 C 18.40625 -5.65625 19.015625 -7.867188 19.015625 -10.796875 C 19.015625 -13.703125 18.40625 -15.898438 17.1875 -17.390625 C 15.976562 -18.890625 14.1875 -19.640625 11.8125 -19.640625 C 9.414062 -19.640625 7.597656 -18.882812 6.359375 -17.375 C 5.117188 -15.875 4.5 -13.679688 4.5 -10.796875 Z M 4.5 -10.796875 "/></g></g></g><g fill="#ffffff" fill-opacity="1"><g transform="translate(185.969159, 216.730767)"><g><path d="M 5.46875 0 L 2.96875 0 L 2.96875 -21.546875 L 14.96875 -21.546875 L 14.96875 -19.328125 L 5.46875 -19.328125 L 5.46875 -11.4375 L 14.40625 -11.4375 L 14.40625 -9.21875 L 5.46875 -9.21875 Z M 5.46875 0 "/></g></g></g><g fill="#ffffff" fill-opacity="1"><g transform="translate(209.429534, 216.730767)"><g><path d="M 2.96875 0 L 2.96875 -21.546875 L 5.46875 -21.546875 L 5.46875 0 Z M 2.96875 0 "/></g></g></g><g fill="#ffffff" fill-opacity="1"><g transform="translate(225.726275, 216.730767)"><g><path d="M 19.796875 0 L 16.9375 0 L 5.15625 -18.09375 L 5.046875 -18.09375 C 5.203125 -15.96875 5.28125 -14.019531 5.28125 -12.25 L 5.28125 0 L 2.96875 0 L 2.96875 -21.546875 L 5.796875 -21.546875 L 17.546875 -3.53125 L 17.65625 -3.53125 C 17.632812 -3.800781 17.585938 -4.65625 17.515625 -6.09375 C 17.453125 -7.53125 17.429688 -8.5625 17.453125 -9.1875 L 17.453125 -21.546875 L 19.796875 -21.546875 Z M 19.796875 0 "/></g></g></g><g fill="#ffffff" fill-opacity="1"><g transform="translate(256.365025, 216.730767)"><g><path d="M 12.4375 -11.296875 L 19.765625 -11.296875 L 19.765625 -0.8125 C 18.628906 -0.445312 17.46875 -0.171875 16.28125 0.015625 C 15.101562 0.203125 13.738281 0.296875 12.1875 0.296875 C 8.925781 0.296875 6.382812 -0.671875 4.5625 -2.609375 C 2.75 -4.554688 1.84375 -7.28125 1.84375 -10.78125 C 1.84375 -13.019531 2.289062 -14.976562 3.1875 -16.65625 C 4.09375 -18.34375 5.390625 -19.628906 7.078125 -20.515625 C 8.765625 -21.410156 10.742188 -21.859375 13.015625 -21.859375 C 15.316406 -21.859375 17.457031 -21.4375 19.4375 -20.59375 L 18.46875 -18.375 C 16.519531 -19.207031 14.648438 -19.625 12.859375 -19.625 C 10.234375 -19.625 8.179688 -18.84375 6.703125 -17.28125 C 5.234375 -15.71875 4.5 -13.550781 4.5 -10.78125 C 4.5 -7.863281 5.207031 -5.65625 6.625 -4.15625 C 8.039062 -2.65625 10.125 -1.90625 12.875 -1.90625 C 14.375 -1.90625 15.835938 -2.078125 17.265625 -2.421875 L 17.265625 -9.046875 L 12.4375 -9.046875 Z M 12.4375 -11.296875 "/></g></g></g><path stroke-linecap="butt" transform="matrix(0.75, 0, 0, 0.75, 45.495093, 129.749346)" fill="none" stroke-linejoin="miter" d="M 0.00133472 2.000872 L 378.516985 2.000872 " stroke="#ffffff" stroke-width="4" stroke-opacity="1" stroke-miterlimit="4"/><path stroke-linecap="butt" transform="matrix(0.75, 0, 0, 0.75, 45.55689, 221.961547)" fill="none" stroke-linejoin="miter" d="M 0.00227126 1.999187 L 378.512713 1.999187 " stroke="#ffffff" stroke-width="4" stroke-opacity="1" stroke-miterlimit="4"/><path stroke-linecap="butt" transform="matrix(0, -0.75, 0.75, 0, 44.052364, 224.956977)" fill="none" stroke-linejoin="miter" d="M -0.0000720296 1.99789 L 126.947853 1.99789 " stroke="#ffffff" stroke-width="4" stroke-opacity="1" stroke-miterlimit="4"/><path stroke-linecap="butt" transform="matrix(0, -0.75, 0.75, 0, 327.876751, 224.956977)" fill="none" stroke-linejoin="miter" d="M -0.0000720296 1.997666 L 126.947853 1.997666 " stroke="#ffffff" stroke-width="4" stroke-opacity="1" stroke-miterlimit="4"/></svg>