<svg xmlns="http://www.w3.org/2000/svg" xmlns:xlink="http://www.w3.org/1999/xlink" width="500" zoomAndPan="magnify" viewBox="0 0 375 374.999991" height="500" preserveAspectRatio="xMidYMid meet" version="1.0"><defs><clipPath id="7f6fc240a6"><path d="M 173.417969 169.734375 L 201.636719 169.734375 L 201.636719 190.859375 L 173.417969 190.859375 Z M 173.417969 169.734375 " clip-rule="nonzero"/></clipPath><clipPath id="24e8ea212a"><path d="M 180.457031 190.859375 L 194.542969 190.859375 L 201.582031 169.734375 L 173.417969 169.734375 Z M 180.457031 190.859375 " clip-rule="nonzero"/></clipPath><clipPath id="5f1be736fe"><path d="M 169.125 177.101562 L 205.945312 177.101562 L 205.945312 204.664062 L 169.125 204.664062 Z M 169.125 177.101562 " clip-rule="nonzero"/></clipPath><clipPath id="332d348d16"><path d="M 178.3125 204.664062 L 196.6875 204.664062 L 205.875 177.101562 L 169.125 177.101562 Z M 178.3125 204.664062 " clip-rule="nonzero"/></clipPath></defs><g clip-path="url(#7f6fc240a6)"><g clip-path="url(#24e8ea212a)"><path fill="#00a2ff" d="M 173.417969 169.734375 L 201.554688 169.734375 L 201.554688 190.859375 L 173.417969 190.859375 Z M 173.417969 169.734375 " fill-opacity="1" fill-rule="nonzero"/></g></g><g clip-path="url(#5f1be736fe)"><g clip-path="url(#332d348d16)"><path fill="#00a2ff" d="M 169.125 177.101562 L 205.839844 177.101562 L 205.839844 204.664062 L 169.125 204.664062 Z M 169.125 177.101562 " fill-opacity="1" fill-rule="nonzero"/></g></g></svg>