<svg xmlns="http://www.w3.org/2000/svg" xmlns:xlink="http://www.w3.org/1999/xlink" width="500" zoomAndPan="magnify" viewBox="0 0 375 374.999991" height="500" preserveAspectRatio="xMidYMid meet" version="1.0"><defs><clipPath id="417548da53"><path d="M 173.417969 169.734375 L 201.636719 169.734375 L 201.636719 190.859375 L 173.417969 190.859375 Z M 173.417969 169.734375 " clip-rule="nonzero"/></clipPath><clipPath id="dce16f037c"><path d="M 180.457031 190.859375 L 194.542969 190.859375 L 201.582031 169.734375 L 173.417969 169.734375 Z M 180.457031 190.859375 " clip-rule="nonzero"/></clipPath><clipPath id="f0dce4bf1a"><path d="M 173.417969 169.734375 L 201.574219 169.734375 L 201.574219 190.734375 L 173.417969 190.734375 Z M 173.417969 169.734375 " clip-rule="nonzero"/></clipPath><clipPath id="50409ec359"><path d="M 180.457031 190.851562 L 194.535156 190.851562 L 201.574219 169.734375 L 173.417969 169.734375 Z M 180.457031 190.851562 " clip-rule="nonzero"/></clipPath><clipPath id="bdcb4bcbea"><path d="M 169.125 177.101562 L 205.945312 177.101562 L 205.945312 204.664062 L 169.125 204.664062 Z M 169.125 177.101562 " clip-rule="nonzero"/></clipPath><clipPath id="a7bfa309c0"><path d="M 178.3125 204.664062 L 196.6875 204.664062 L 205.875 177.101562 L 169.125 177.101562 Z M 178.3125 204.664062 " clip-rule="nonzero"/></clipPath><clipPath id="0f3736194f"><path d="M 169.128906 177.101562 L 205.863281 177.101562 L 205.863281 204.652344 L 169.128906 204.652344 Z M 169.128906 177.101562 " clip-rule="nonzero"/></clipPath><clipPath id="6bc3794fee"><path d="M 178.3125 204.652344 L 196.679688 204.652344 L 205.863281 177.101562 L 169.128906 177.101562 Z M 178.3125 204.652344 " clip-rule="nonzero"/></clipPath><clipPath id="d46c02cfca"><path d="M 178.296875 175.152344 L 187.519531 175.152344 L 187.519531 182.054688 L 178.296875 182.054688 Z M 178.296875 175.152344 " clip-rule="nonzero"/></clipPath><clipPath id="96c18ebd33"><path d="M 180.597656 182.054688 L 185.199219 182.054688 L 187.5 175.152344 L 178.296875 175.152344 Z M 180.597656 182.054688 " clip-rule="nonzero"/></clipPath><clipPath id="6678835d00"><path d="M 187.5 175.152344 L 196.722656 175.152344 L 196.722656 182.054688 L 187.5 182.054688 Z M 187.5 175.152344 " clip-rule="nonzero"/></clipPath><clipPath id="634d50b58b"><path d="M 189.800781 182.054688 L 194.402344 182.054688 L 196.703125 175.152344 L 187.5 175.152344 Z M 189.800781 182.054688 " clip-rule="nonzero"/></clipPath></defs><g clip-path="url(#417548da53)"><g clip-path="url(#dce16f037c)"><path fill="#ffffff" d="M 173.417969 169.734375 L 201.554688 169.734375 L 201.554688 190.859375 L 173.417969 190.859375 Z M 173.417969 169.734375 " fill-opacity="1" fill-rule="nonzero"/></g></g><g clip-path="url(#f0dce4bf1a)"><g clip-path="url(#50409ec359)"><path stroke-linecap="butt" transform="matrix(0.75, 0, 0, 0.75, 173.419066, 169.734363)" fill="none" stroke-linejoin="miter" d="M 9.383954 28.156268 L 28.154789 28.156268 L 37.540206 0.0000156612 L -0.00146288 0.0000156612 Z M 9.383954 28.156268 " stroke="#000000" stroke-width="8" stroke-opacity="1" stroke-miterlimit="4"/></g></g><g clip-path="url(#bdcb4bcbea)"><g clip-path="url(#a7bfa309c0)"><path fill="#ffffff" d="M 169.125 177.101562 L 205.839844 177.101562 L 205.839844 204.664062 L 169.125 204.664062 Z M 169.125 177.101562 " fill-opacity="1" fill-rule="nonzero"/></g></g><g clip-path="url(#0f3736194f)"><g clip-path="url(#6bc3794fee)"><path stroke-linecap="butt" transform="matrix(0.75, 0, 0, 0.75, 169.127074, 177.103232)" fill="none" stroke-linejoin="miter" d="M 12.247234 36.73215 L 36.736818 36.73215 L 48.981609 -0.00222543 L 0.00244274 -0.00222543 Z M 12.247234 36.73215 " stroke="#000000" stroke-width="8" stroke-opacity="1" stroke-miterlimit="4"/></g></g><path stroke-linecap="butt" transform="matrix(0.75, 0, 0, 0.75, 180.599993, 176.728232)" fill="none" stroke-linejoin="miter" d="M 0.00209315 2.497775 L 18.397928 2.497775 " stroke="#ffffff" stroke-width="5" stroke-opacity="1" stroke-miterlimit="4"/><g clip-path="url(#d46c02cfca)"><g clip-path="url(#96c18ebd33)"><path fill="#ffffff" d="M 178.296875 175.152344 L 187.492188 175.152344 L 187.492188 182.054688 L 178.296875 182.054688 Z M 178.296875 175.152344 " fill-opacity="1" fill-rule="nonzero"/></g></g><g clip-path="url(#6678835d00)"><g clip-path="url(#634d50b58b)"><path fill="#ffffff" d="M 187.5 175.152344 L 196.695312 175.152344 L 196.695312 182.054688 L 187.5 182.054688 Z M 187.5 175.152344 " fill-opacity="1" fill-rule="nonzero"/></g></g></svg>