<svg version="1.0" preserveAspectRatio="xMidYMid meet" viewBox="35.25 116.24999721 302.25 120.74999710200001" zoomAndPan="magnify" xmlns:xlink="http://www.w3.org/1999/xlink" xmlns="http://www.w3.org/2000/svg" style="max-height: 500px" width="302.25" height="120.74999710200001"><defs><g/><clipPath id="78caa23726"><path clip-rule="nonzero" d="M 37.5 118.054688 L 337.5 118.054688 L 337.5 234.929688 L 37.5 234.929688 Z M 37.5 118.054688"/></clipPath></defs><g clip-path="url(#78caa23726)"><path fill-rule="nonzero" fill-opacity="1" d="M 37.5 118.054688 L 337.449219 118.054688 L 337.449219 234.929688 L 37.5 234.929688 Z M 37.5 118.054688" fill="#000000"/></g><g fill-opacity="1" fill="#ffffff"><g transform="translate(54.366934, 175.81394)"><g><path d="M 34.4375 0 L 23.515625 0 L 16.453125 -13.6875 L 13.578125 -11.96875 L 13.578125 0 L 3.859375 0 L 3.859375 -35.78125 L 13.578125 -35.78125 L 13.578125 -20.234375 C 14.066406 -21.203125 15.054688 -22.726562 16.546875 -24.8125 L 24.0625 -35.78125 L 34.625 -35.78125 L 23.34375 -19.75 Z M 34.4375 0"/></g></g></g><g fill-opacity="1" fill="#ffffff"><g transform="translate(88.803163, 175.81394)"><g><path d="M 25.109375 0 L 3.859375 0 L 3.859375 -35.78125 L 25.109375 -35.78125 L 25.109375 -28.03125 L 13.53125 -28.03125 L 13.53125 -22.390625 L 24.25 -22.390625 L 24.25 -14.640625 L 13.53125 -14.640625 L 13.53125 -7.875 L 25.109375 -7.875 Z M 25.109375 0"/></g></g></g><g fill-opacity="1" fill="#ffffff"><g transform="translate(116.312987, 175.81394)"><g><path d="M 16.640625 -22.515625 L 22.8125 -35.78125 L 33.28125 -35.78125 L 21.515625 -13.96875 L 21.515625 0 L 11.765625 0 L 11.765625 -13.6875 L 0 -35.78125 L 10.53125 -35.78125 Z M 16.640625 -22.515625"/></g></g></g><g fill-opacity="1" fill="#ffffff"><g transform="translate(149.598894, 175.81394)"><g><path d="M 27.265625 -10.859375 C 27.265625 -8.640625 26.703125 -6.671875 25.578125 -4.953125 C 24.453125 -3.234375 22.828125 -1.894531 20.703125 -0.9375 C 18.585938 0.0078125 16.097656 0.484375 13.234375 0.484375 C 10.859375 0.484375 8.863281 0.316406 7.25 -0.015625 C 5.632812 -0.347656 3.953125 -0.929688 2.203125 -1.765625 L 2.203125 -10.375 C 4.046875 -9.425781 5.960938 -8.6875 7.953125 -8.15625 C 9.941406 -7.625 11.769531 -7.359375 13.4375 -7.359375 C 14.875 -7.359375 15.925781 -7.609375 16.59375 -8.109375 C 17.257812 -8.609375 17.59375 -9.25 17.59375 -10.03125 C 17.59375 -10.519531 17.457031 -10.945312 17.1875 -11.3125 C 16.925781 -11.6875 16.492188 -12.0625 15.890625 -12.4375 C 15.296875 -12.8125 13.710938 -13.578125 11.140625 -14.734375 C 8.804688 -15.796875 7.054688 -16.820312 5.890625 -17.8125 C 4.722656 -18.8125 3.859375 -19.953125 3.296875 -21.234375 C 2.734375 -22.523438 2.453125 -24.054688 2.453125 -25.828125 C 2.453125 -29.117188 3.648438 -31.6875 6.046875 -33.53125 C 8.441406 -35.375 11.738281 -36.296875 15.9375 -36.296875 C 19.632812 -36.296875 23.410156 -35.441406 27.265625 -33.734375 L 24.296875 -26.265625 C 20.953125 -27.796875 18.066406 -28.5625 15.640625 -28.5625 C 14.378906 -28.5625 13.460938 -28.335938 12.890625 -27.890625 C 12.328125 -27.453125 12.046875 -26.910156 12.046875 -26.265625 C 12.046875 -25.554688 12.40625 -24.925781 13.125 -24.375 C 13.851562 -23.820312 15.828125 -22.8125 19.046875 -21.34375 C 22.128906 -19.957031 24.269531 -18.46875 25.46875 -16.875 C 26.664062 -15.28125 27.265625 -13.273438 27.265625 -10.859375 Z M 27.265625 -10.859375"/></g></g></g><g fill-opacity="1" fill="#ffffff"><g transform="translate(178.528264, 175.81394)"><g><path d="M 19.65625 0 L 9.984375 0 L 9.984375 -27.875 L 1.25 -27.875 L 1.25 -35.78125 L 28.359375 -35.78125 L 28.359375 -27.875 L 19.65625 -27.875 Z M 19.65625 0"/></g></g></g><g fill-opacity="1" fill="#ffffff"><g transform="translate(208.142931, 175.81394)"><g><path d="M 37.34375 -17.9375 C 37.34375 -11.914062 35.863281 -7.335938 32.90625 -4.203125 C 29.957031 -1.078125 25.640625 0.484375 19.953125 0.484375 C 14.335938 0.484375 10.03125 -1.085938 7.03125 -4.234375 C 4.039062 -7.378906 2.546875 -11.960938 2.546875 -17.984375 C 2.546875 -23.941406 4.035156 -28.488281 7.015625 -31.625 C 9.992188 -34.769531 14.320312 -36.34375 20 -36.34375 C 25.6875 -36.34375 30 -34.785156 32.9375 -31.671875 C 35.875 -28.554688 37.34375 -23.976562 37.34375 -17.9375 Z M 12.734375 -17.9375 C 12.734375 -11.019531 15.140625 -7.5625 19.953125 -7.5625 C 22.398438 -7.5625 24.210938 -8.398438 25.390625 -10.078125 C 26.578125 -11.765625 27.171875 -14.382812 27.171875 -17.9375 C 27.171875 -21.507812 26.566406 -24.148438 25.359375 -25.859375 C 24.160156 -27.566406 22.375 -28.421875 20 -28.421875 C 15.15625 -28.421875 12.734375 -24.925781 12.734375 -17.9375 Z M 12.734375 -17.9375"/></g></g></g><g fill-opacity="1" fill="#ffffff"><g transform="translate(248.08602, 175.81394)"><g><path d="M 37.9375 0 L 25.265625 0 L 12.1875 -25.203125 L 11.96875 -25.203125 C 12.28125 -21.242188 12.4375 -18.21875 12.4375 -16.125 L 12.4375 0 L 3.859375 0 L 3.859375 -35.78125 L 16.5 -35.78125 L 29.515625 -10.921875 L 29.65625 -10.921875 C 29.4375 -14.523438 29.328125 -17.421875 29.328125 -19.609375 L 29.328125 -35.78125 L 37.9375 -35.78125 Z M 37.9375 0"/></g></g></g><g fill-opacity="1" fill="#ffffff"><g transform="translate(289.889217, 175.81394)"><g><path d="M 25.109375 0 L 3.859375 0 L 3.859375 -35.78125 L 25.109375 -35.78125 L 25.109375 -28.03125 L 13.53125 -28.03125 L 13.53125 -22.390625 L 24.25 -22.390625 L 24.25 -14.640625 L 13.53125 -14.640625 L 13.53125 -7.875 L 25.109375 -7.875 Z M 25.109375 0"/></g></g></g><g fill-opacity="1" fill="#ffffff"><g transform="translate(83.952978, 213.219977)"><g><path d="M 9.09375 -14.96875 L 10.9375 -14.96875 C 12.738281 -14.96875 14.066406 -15.269531 14.921875 -15.875 C 15.785156 -16.476562 16.21875 -17.425781 16.21875 -18.71875 C 16.21875 -19.988281 15.78125 -20.894531 14.90625 -21.4375 C 14.03125 -21.976562 12.671875 -22.25 10.828125 -22.25 L 9.09375 -22.25 Z M 9.09375 -10.328125 L 9.09375 0 L 3.390625 0 L 3.390625 -26.921875 L 11.234375 -26.921875 C 14.890625 -26.921875 17.59375 -26.253906 19.34375 -24.921875 C 21.101562 -23.585938 21.984375 -21.566406 21.984375 -18.859375 C 21.984375 -17.273438 21.546875 -15.863281 20.671875 -14.625 C 19.804688 -13.394531 18.578125 -12.429688 16.984375 -11.734375 C 21.035156 -5.679688 23.675781 -1.769531 24.90625 0 L 18.5625 0 L 12.140625 -10.328125 Z M 9.09375 -10.328125"/></g></g></g><g fill-opacity="1" fill="#ffffff"><g transform="translate(114.015776, 213.219977)"><g><path d="M 27.828125 -13.5 C 27.828125 -9.039062 26.722656 -5.613281 24.515625 -3.21875 C 22.304688 -0.820312 19.140625 0.375 15.015625 0.375 C 10.890625 0.375 7.71875 -0.820312 5.5 -3.21875 C 3.289062 -5.613281 2.1875 -9.050781 2.1875 -13.53125 C 2.1875 -18.019531 3.296875 -21.441406 5.515625 -23.796875 C 7.734375 -26.160156 10.910156 -27.34375 15.046875 -27.34375 C 19.179688 -27.34375 22.34375 -26.148438 24.53125 -23.765625 C 26.726562 -21.390625 27.828125 -17.96875 27.828125 -13.5 Z M 8.171875 -13.5 C 8.171875 -10.488281 8.742188 -8.222656 9.890625 -6.703125 C 11.035156 -5.179688 12.742188 -4.421875 15.015625 -4.421875 C 19.566406 -4.421875 21.84375 -7.445312 21.84375 -13.5 C 21.84375 -19.5625 19.578125 -22.59375 15.046875 -22.59375 C 12.773438 -22.59375 11.0625 -21.828125 9.90625 -20.296875 C 8.75 -18.773438 8.171875 -16.507812 8.171875 -13.5 Z M 8.171875 -13.5"/></g></g></g><g fill-opacity="1" fill="#ffffff"><g transform="translate(149.197537, 213.219977)"><g><path d="M 27.828125 -13.5 C 27.828125 -9.039062 26.722656 -5.613281 24.515625 -3.21875 C 22.304688 -0.820312 19.140625 0.375 15.015625 0.375 C 10.890625 0.375 7.71875 -0.820312 5.5 -3.21875 C 3.289062 -5.613281 2.1875 -9.050781 2.1875 -13.53125 C 2.1875 -18.019531 3.296875 -21.441406 5.515625 -23.796875 C 7.734375 -26.160156 10.910156 -27.34375 15.046875 -27.34375 C 19.179688 -27.34375 22.34375 -26.148438 24.53125 -23.765625 C 26.726562 -21.390625 27.828125 -17.96875 27.828125 -13.5 Z M 8.171875 -13.5 C 8.171875 -10.488281 8.742188 -8.222656 9.890625 -6.703125 C 11.035156 -5.179688 12.742188 -4.421875 15.015625 -4.421875 C 19.566406 -4.421875 21.84375 -7.445312 21.84375 -13.5 C 21.84375 -19.5625 19.578125 -22.59375 15.046875 -22.59375 C 12.773438 -22.59375 11.0625 -21.828125 9.90625 -20.296875 C 8.75 -18.773438 8.171875 -16.507812 8.171875 -13.5 Z M 8.171875 -13.5"/></g></g></g><g fill-opacity="1" fill="#ffffff"><g transform="translate(184.379294, 213.219977)"><g><path d="M 9 0 L 3.390625 0 L 3.390625 -26.921875 L 18.828125 -26.921875 L 18.828125 -22.25 L 9 -22.25 L 9 -15.3125 L 18.140625 -15.3125 L 18.140625 -10.640625 L 9 -10.640625 Z M 9 0"/></g></g></g><g fill-opacity="1" fill="#ffffff"><g transform="translate(210.24381, 213.219977)"><g><path d="M 3.390625 0 L 3.390625 -26.921875 L 9.09375 -26.921875 L 9.09375 0 Z M 3.390625 0"/></g></g></g><g fill-opacity="1" fill="#ffffff"><g transform="translate(227.895885, 213.219977)"><g><path d="M 27.28125 0 L 20.015625 0 L 8.3125 -20.375 L 8.140625 -20.375 C 8.367188 -16.769531 8.484375 -14.203125 8.484375 -12.671875 L 8.484375 0 L 3.390625 0 L 3.390625 -26.921875 L 10.59375 -26.921875 L 22.28125 -6.765625 L 22.40625 -6.765625 C 22.226562 -10.265625 22.140625 -12.738281 22.140625 -14.1875 L 22.140625 -26.921875 L 27.28125 -26.921875 Z M 27.28125 0"/></g></g></g><g fill-opacity="1" fill="#ffffff"><g transform="translate(263.722116, 213.219977)"><g><path d="M 13.609375 -15.125 L 24.296875 -15.125 L 24.296875 -1.15625 C 22.566406 -0.59375 20.9375 -0.195312 19.40625 0.03125 C 17.875 0.257812 16.3125 0.375 14.71875 0.375 C 10.65625 0.375 7.550781 -0.816406 5.40625 -3.203125 C 3.257812 -5.597656 2.1875 -9.03125 2.1875 -13.5 C 2.1875 -17.84375 3.429688 -21.226562 5.921875 -23.65625 C 8.410156 -26.09375 11.859375 -27.3125 16.265625 -27.3125 C 19.023438 -27.3125 21.6875 -26.757812 24.25 -25.65625 L 22.359375 -21.09375 C 20.390625 -22.070312 18.34375 -22.5625 16.21875 -22.5625 C 13.757812 -22.5625 11.785156 -21.734375 10.296875 -20.078125 C 8.804688 -18.421875 8.0625 -16.191406 8.0625 -13.390625 C 8.0625 -10.460938 8.660156 -8.226562 9.859375 -6.6875 C 11.054688 -5.15625 12.796875 -4.390625 15.078125 -4.390625 C 16.273438 -4.390625 17.488281 -4.507812 18.71875 -4.75 L 18.71875 -10.375 L 13.609375 -10.375 Z M 13.609375 -15.125"/></g></g></g><path stroke-miterlimit="4" stroke-opacity="1" stroke-width="4" stroke="#ffffff" d="M 0.00133472 2.000891 L 378.516985 2.000891" stroke-linejoin="miter" fill="none" transform="matrix(0.75, 0, 0, 0.75, 45.495093, 129.749331)" stroke-linecap="butt"/><path stroke-miterlimit="4" stroke-opacity="1" stroke-width="4" stroke="#ffffff" d="M 0.00227126 1.999245 L 378.512713 1.999245" stroke-linejoin="miter" fill="none" transform="matrix(0.75, 0, 0, 0.75, 45.55689, 221.961504)" stroke-linecap="butt"/><path stroke-miterlimit="4" stroke-opacity="1" stroke-width="4" stroke="#ffffff" d="M -0.0000336296 1.99789 L 126.947891 1.99789" stroke-linejoin="miter" fill="none" transform="matrix(0, -0.75, 0.75, 0, 44.052364, 224.957006)" stroke-linecap="butt"/><path stroke-miterlimit="4" stroke-opacity="1" stroke-width="4" stroke="#ffffff" d="M -0.0000336296 1.997666 L 126.947891 1.997666" stroke-linejoin="miter" fill="none" transform="matrix(0, -0.75, 0.75, 0, 327.876751, 224.957006)" stroke-linecap="butt"/></svg>