<svg class="h-full w-full" xmlns="http://www.w3.org/2000/svg" style="max-height: 500px" viewBox="126.976 142.336 227.328 227.328" width="227.328" height="227.328"><rect paint-order="stroke" stroke-opacity="100%" stroke-width="0" stroke="transparent" fill="transparent" rx="35" y="0" x="0" height="512" width="512"/><svg xmlns="http://www.w3.org/2000/svg" style="display:inline-block;vertical-align:middle" role="img" y="128" x="128" fill="#3A76F5" viewBox="0 0 512 512" height="256px" width="256px"><g fill="#3A76F5"><path d="M48 32C21.5 32 0 53.5 0 80v352c0 26.5 21.5 48 48 48h352c26.5 0 48-21.5 48-48V80c0-26.5-21.5-48-48-48H48zm176 64c13.02 9.05 130.934 120.222 137.143 131.145v60.183c-8.605.21-122.971-119.626-137.143-125.318c-14.172 5.692-128.538 125.529-137.143 125.318v-60.183C93.066 216.222 210.98 105.049 224 96zm0 128.672c13.02 9.05 130.934 120.222 137.143 131.144V416c-8.605.21-122.971-119.627-137.143-125.32C209.828 296.373 95.462 416.21 86.857 416v-60.184C93.066 344.894 210.98 233.721 224 224.672z" fill="currentColor"/></g></svg></svg>