<svg xmlns="http://www.w3.org/2000/svg" xmlns:xlink="http://www.w3.org/1999/xlink" width="500" zoomAndPan="magnify" viewBox="0 0 375 374.999991" height="500" preserveAspectRatio="xMidYMid meet" version="1.0"><defs><g/><clipPath id="93a2eaa404"><path d="M 37.5 118.054688 L 337.5 118.054688 L 337.5 234.929688 L 37.5 234.929688 Z M 37.5 118.054688 " clip-rule="nonzero"/></clipPath></defs><g clip-path="url(#93a2eaa404)"><path fill="#ffffff" d="M 37.5 118.054688 L 337.449219 118.054688 L 337.449219 234.929688 L 37.5 234.929688 Z M 37.5 118.054688 " fill-opacity="1" fill-rule="nonzero"/></g><g fill="#000000" fill-opacity="1"><g transform="translate(58.201171, 180.320671)"><g><path d="M 33.859375 0 L 23.125 0 L 16.171875 -13.453125 L 13.359375 -11.765625 L 13.359375 0 L 3.796875 0 L 3.796875 -35.1875 L 13.359375 -35.1875 L 13.359375 -19.90625 C 13.835938 -20.84375 14.804688 -22.34375 16.265625 -24.40625 L 23.65625 -35.1875 L 34.046875 -35.1875 L 22.953125 -19.421875 Z M 33.859375 0 "/></g></g></g><g fill="#000000" fill-opacity="1"><g transform="translate(92.055287, 180.320671)"><g><path d="M 24.6875 0 L 3.796875 0 L 3.796875 -35.1875 L 24.6875 -35.1875 L 24.6875 -27.546875 L 13.3125 -27.546875 L 13.3125 -22.015625 L 23.84375 -22.015625 L 23.84375 -14.390625 L 13.3125 -14.390625 L 13.3125 -7.75 L 24.6875 -7.75 Z M 24.6875 0 "/></g></g></g><g fill="#000000" fill-opacity="1"><g transform="translate(119.100078, 180.320671)"><g><path d="M 16.359375 -22.140625 L 22.421875 -35.1875 L 32.71875 -35.1875 L 21.15625 -13.734375 L 21.15625 0 L 11.578125 0 L 11.578125 -13.453125 L 0 -35.1875 L 10.34375 -35.1875 Z M 16.359375 -22.140625 "/></g></g></g><g fill="#000000" fill-opacity="1"><g transform="translate(151.823311, 180.320671)"><g><path d="M 26.8125 -10.6875 C 26.8125 -8.5 26.253906 -6.554688 25.140625 -4.859375 C 24.035156 -3.171875 22.441406 -1.859375 20.359375 -0.921875 C 18.273438 0.015625 15.828125 0.484375 13.015625 0.484375 C 10.671875 0.484375 8.703125 0.320312 7.109375 0 C 5.523438 -0.332031 3.878906 -0.910156 2.171875 -1.734375 L 2.171875 -10.203125 C 3.984375 -9.273438 5.863281 -8.550781 7.8125 -8.03125 C 9.769531 -7.507812 11.566406 -7.25 13.203125 -7.25 C 14.617188 -7.25 15.65625 -7.488281 16.3125 -7.96875 C 16.96875 -8.457031 17.296875 -9.085938 17.296875 -9.859375 C 17.296875 -10.347656 17.160156 -10.769531 16.890625 -11.125 C 16.628906 -11.488281 16.207031 -11.851562 15.625 -12.21875 C 15.039062 -12.59375 13.484375 -13.347656 10.953125 -14.484375 C 8.648438 -15.523438 6.925781 -16.535156 5.78125 -17.515625 C 4.632812 -18.492188 3.785156 -19.613281 3.234375 -20.875 C 2.679688 -22.144531 2.40625 -23.648438 2.40625 -25.390625 C 2.40625 -28.628906 3.582031 -31.15625 5.9375 -32.96875 C 8.300781 -34.78125 11.546875 -35.6875 15.671875 -35.6875 C 19.304688 -35.6875 23.019531 -34.84375 26.8125 -33.15625 L 23.890625 -25.8125 C 20.609375 -27.320312 17.769531 -28.078125 15.375 -28.078125 C 14.144531 -28.078125 13.25 -27.859375 12.6875 -27.421875 C 12.125 -26.992188 11.84375 -26.457031 11.84375 -25.8125 C 11.84375 -25.125 12.195312 -24.507812 12.90625 -23.96875 C 13.625 -23.425781 15.5625 -22.429688 18.71875 -20.984375 C 21.75 -19.617188 23.851562 -18.15625 25.03125 -16.59375 C 26.21875 -15.03125 26.8125 -13.0625 26.8125 -10.6875 Z M 26.8125 -10.6875 "/></g></g></g><g fill="#000000" fill-opacity="1"><g transform="translate(180.263651, 180.320671)"><g><path d="M 19.328125 0 L 9.8125 0 L 9.8125 -27.40625 L 1.234375 -27.40625 L 1.234375 -35.1875 L 27.890625 -35.1875 L 27.890625 -27.40625 L 19.328125 -27.40625 Z M 19.328125 0 "/></g></g></g><g fill="#000000" fill-opacity="1"><g transform="translate(209.377705, 180.320671)"><g><path d="M 36.71875 -17.640625 C 36.71875 -11.722656 35.265625 -7.222656 32.359375 -4.140625 C 29.460938 -1.054688 25.210938 0.484375 19.609375 0.484375 C 14.085938 0.484375 9.851562 -1.0625 6.90625 -4.15625 C 3.96875 -7.257812 2.5 -11.769531 2.5 -17.6875 C 2.5 -23.539062 3.960938 -28.007812 6.890625 -31.09375 C 9.816406 -34.1875 14.070312 -35.734375 19.65625 -35.734375 C 25.257812 -35.734375 29.503906 -34.203125 32.390625 -31.140625 C 35.273438 -28.078125 36.71875 -23.578125 36.71875 -17.640625 Z M 12.515625 -17.640625 C 12.515625 -10.835938 14.878906 -7.4375 19.609375 -7.4375 C 22.015625 -7.4375 23.796875 -8.257812 24.953125 -9.90625 C 26.117188 -11.5625 26.703125 -14.140625 26.703125 -17.640625 C 26.703125 -21.148438 26.113281 -23.742188 24.9375 -25.421875 C 23.757812 -27.097656 22 -27.9375 19.65625 -27.9375 C 14.894531 -27.9375 12.515625 -24.503906 12.515625 -17.640625 Z M 12.515625 -17.640625 "/></g></g></g><g fill="#000000" fill-opacity="1"><g transform="translate(248.645586, 180.320671)"><g><path d="M 37.296875 0 L 24.828125 0 L 11.984375 -24.78125 L 11.765625 -24.78125 C 12.066406 -20.882812 12.21875 -17.910156 12.21875 -15.859375 L 12.21875 0 L 3.796875 0 L 3.796875 -35.1875 L 16.21875 -35.1875 L 29.015625 -10.734375 L 29.171875 -10.734375 C 28.941406 -14.273438 28.828125 -17.125 28.828125 -19.28125 L 28.828125 -35.1875 L 37.296875 -35.1875 Z M 37.296875 0 "/></g></g></g><g fill="#000000" fill-opacity="1"><g transform="translate(289.742118, 180.320671)"><g><path d="M 24.6875 0 L 3.796875 0 L 3.796875 -35.1875 L 24.6875 -35.1875 L 24.6875 -27.546875 L 13.3125 -27.546875 L 13.3125 -22.015625 L 23.84375 -22.015625 L 23.84375 -14.390625 L 13.3125 -14.390625 L 13.3125 -7.75 L 24.6875 -7.75 Z M 24.6875 0 "/></g></g></g><g fill="#000000" fill-opacity="1"><g transform="translate(96.647137, 216.730767)"><g><path d="M 5.46875 -8.96875 L 5.46875 0 L 2.96875 0 L 2.96875 -21.546875 L 8.875 -21.546875 C 11.519531 -21.546875 13.472656 -21.039062 14.734375 -20.03125 C 15.992188 -19.019531 16.625 -17.5 16.625 -15.46875 C 16.625 -12.613281 15.179688 -10.6875 12.296875 -9.6875 L 18.140625 0 L 15.1875 0 L 9.96875 -8.96875 Z M 5.46875 -11.109375 L 8.90625 -11.109375 C 10.675781 -11.109375 11.972656 -11.457031 12.796875 -12.15625 C 13.617188 -12.863281 14.03125 -13.921875 14.03125 -15.328125 C 14.03125 -16.753906 13.609375 -17.78125 12.765625 -18.40625 C 11.929688 -19.039062 10.582031 -19.359375 8.71875 -19.359375 L 5.46875 -19.359375 Z M 5.46875 -11.109375 "/></g></g></g><g fill="#000000" fill-opacity="1"><g transform="translate(123.188172, 216.730767)"><g><path d="M 21.671875 -10.796875 C 21.671875 -7.347656 20.796875 -4.632812 19.046875 -2.65625 C 17.304688 -0.6875 14.882812 0.296875 11.78125 0.296875 C 8.601562 0.296875 6.148438 -0.671875 4.421875 -2.609375 C 2.703125 -4.554688 1.84375 -7.296875 1.84375 -10.828125 C 1.84375 -14.335938 2.707031 -17.054688 4.4375 -18.984375 C 6.164062 -20.921875 8.625 -21.890625 11.8125 -21.890625 C 14.90625 -21.890625 17.320312 -20.90625 19.0625 -18.9375 C 20.800781 -16.976562 21.671875 -14.265625 21.671875 -10.796875 Z M 4.5 -10.796875 C 4.5 -7.878906 5.117188 -5.664062 6.359375 -4.15625 C 7.597656 -2.65625 9.40625 -1.90625 11.78125 -1.90625 C 14.164062 -1.90625 15.96875 -2.65625 17.1875 -4.15625 C 18.40625 -5.65625 19.015625 -7.867188 19.015625 -10.796875 C 19.015625 -13.703125 18.40625 -15.898438 17.1875 -17.390625 C 15.976562 -18.890625 14.1875 -19.640625 11.8125 -19.640625 C 9.414062 -19.640625 7.597656 -18.882812 6.359375 -17.375 C 5.117188 -15.875 4.5 -13.679688 4.5 -10.796875 Z M 4.5 -10.796875 "/></g></g></g><g fill="#000000" fill-opacity="1"><g transform="translate(154.578664, 216.730767)"><g><path d="M 21.671875 -10.796875 C 21.671875 -7.347656 20.796875 -4.632812 19.046875 -2.65625 C 17.304688 -0.6875 14.882812 0.296875 11.78125 0.296875 C 8.601562 0.296875 6.148438 -0.671875 4.421875 -2.609375 C 2.703125 -4.554688 1.84375 -7.296875 1.84375 -10.828125 C 1.84375 -14.335938 2.707031 -17.054688 4.4375 -18.984375 C 6.164062 -20.921875 8.625 -21.890625 11.8125 -21.890625 C 14.90625 -21.890625 17.320312 -20.90625 19.0625 -18.9375 C 20.800781 -16.976562 21.671875 -14.265625 21.671875 -10.796875 Z M 4.5 -10.796875 C 4.5 -7.878906 5.117188 -5.664062 6.359375 -4.15625 C 7.597656 -2.65625 9.40625 -1.90625 11.78125 -1.90625 C 14.164062 -1.90625 15.96875 -2.65625 17.1875 -4.15625 C 18.40625 -5.65625 19.015625 -7.867188 19.015625 -10.796875 C 19.015625 -13.703125 18.40625 -15.898438 17.1875 -17.390625 C 15.976562 -18.890625 14.1875 -19.640625 11.8125 -19.640625 C 9.414062 -19.640625 7.597656 -18.882812 6.359375 -17.375 C 5.117188 -15.875 4.5 -13.679688 4.5 -10.796875 Z M 4.5 -10.796875 "/></g></g></g><g fill="#000000" fill-opacity="1"><g transform="translate(185.969159, 216.730767)"><g><path d="M 5.46875 0 L 2.96875 0 L 2.96875 -21.546875 L 14.96875 -21.546875 L 14.96875 -19.328125 L 5.46875 -19.328125 L 5.46875 -11.4375 L 14.40625 -11.4375 L 14.40625 -9.21875 L 5.46875 -9.21875 Z M 5.46875 0 "/></g></g></g><g fill="#000000" fill-opacity="1"><g transform="translate(209.429534, 216.730767)"><g><path d="M 2.96875 0 L 2.96875 -21.546875 L 5.46875 -21.546875 L 5.46875 0 Z M 2.96875 0 "/></g></g></g><g fill="#000000" fill-opacity="1"><g transform="translate(225.726275, 216.730767)"><g><path d="M 19.796875 0 L 16.9375 0 L 5.15625 -18.09375 L 5.046875 -18.09375 C 5.203125 -15.96875 5.28125 -14.019531 5.28125 -12.25 L 5.28125 0 L 2.96875 0 L 2.96875 -21.546875 L 5.796875 -21.546875 L 17.546875 -3.53125 L 17.65625 -3.53125 C 17.632812 -3.800781 17.585938 -4.65625 17.515625 -6.09375 C 17.453125 -7.53125 17.429688 -8.5625 17.453125 -9.1875 L 17.453125 -21.546875 L 19.796875 -21.546875 Z M 19.796875 0 "/></g></g></g><g fill="#000000" fill-opacity="1"><g transform="translate(256.365025, 216.730767)"><g><path d="M 12.4375 -11.296875 L 19.765625 -11.296875 L 19.765625 -0.8125 C 18.628906 -0.445312 17.46875 -0.171875 16.28125 0.015625 C 15.101562 0.203125 13.738281 0.296875 12.1875 0.296875 C 8.925781 0.296875 6.382812 -0.671875 4.5625 -2.609375 C 2.75 -4.554688 1.84375 -7.28125 1.84375 -10.78125 C 1.84375 -13.019531 2.289062 -14.976562 3.1875 -16.65625 C 4.09375 -18.34375 5.390625 -19.628906 7.078125 -20.515625 C 8.765625 -21.410156 10.742188 -21.859375 13.015625 -21.859375 C 15.316406 -21.859375 17.457031 -21.4375 19.4375 -20.59375 L 18.46875 -18.375 C 16.519531 -19.207031 14.648438 -19.625 12.859375 -19.625 C 10.234375 -19.625 8.179688 -18.84375 6.703125 -17.28125 C 5.234375 -15.71875 4.5 -13.550781 4.5 -10.78125 C 4.5 -7.863281 5.207031 -5.65625 6.625 -4.15625 C 8.039062 -2.65625 10.125 -1.90625 12.875 -1.90625 C 14.375 -1.90625 15.835938 -2.078125 17.265625 -2.421875 L 17.265625 -9.046875 L 12.4375 -9.046875 Z M 12.4375 -11.296875 "/></g></g></g><path stroke-linecap="butt" transform="matrix(0.75, 0, 0, 0.75, 45.495093, 129.749346)" fill="none" stroke-linejoin="miter" d="M 0.00133472 2.000872 L 378.516985 2.000872 " stroke="#000000" stroke-width="4" stroke-opacity="1" stroke-miterlimit="4"/><path stroke-linecap="butt" transform="matrix(0.75, 0, 0, 0.75, 45.55689, 221.961547)" fill="none" stroke-linejoin="miter" d="M 0.00227126 1.999187 L 378.512713 1.999187 " stroke="#000000" stroke-width="4" stroke-opacity="1" stroke-miterlimit="4"/><path stroke-linecap="butt" transform="matrix(0, -0.75, 0.75, 0, 44.052364, 224.956977)" fill="none" stroke-linejoin="miter" d="M -0.0000720296 1.99789 L 126.947853 1.99789 " stroke="#000000" stroke-width="4" stroke-opacity="1" stroke-miterlimit="4"/><path stroke-linecap="butt" transform="matrix(0, -0.75, 0.75, 0, 327.876751, 224.956977)" fill="none" stroke-linejoin="miter" d="M -0.0000720296 1.997666 L 126.947853 1.997666 " stroke="#000000" stroke-width="4" stroke-opacity="1" stroke-miterlimit="4"/><g fill="#000000" fill-opacity="1"><g transform="translate(64.659867, 251.610101)"><g><path d="M 1.015625 0 L 1.015625 -9.421875 L 3.578125 -9.421875 L 3.578125 0 Z M 1.015625 0 "/></g></g></g><g fill="#000000" fill-opacity="1"><g transform="translate(72.692989, 251.610101)"><g><path d="M 9.984375 0 L 6.640625 0 L 3.203125 -6.625 L 3.15625 -6.625 C 3.226562 -5.582031 3.265625 -4.789062 3.265625 -4.25 L 3.265625 0 L 1.015625 0 L 1.015625 -9.421875 L 4.34375 -9.421875 L 7.765625 -2.875 L 7.796875 -2.875 C 7.742188 -3.820312 7.71875 -4.582031 7.71875 -5.15625 L 7.71875 -9.421875 L 9.984375 -9.421875 Z M 9.984375 0 "/></g></g></g><g fill="#000000" fill-opacity="1"><g transform="translate(87.131221, 251.610101)"><g><path d="M 9.015625 -4.90625 C 9.015625 -3.332031 8.578125 -2.117188 7.703125 -1.265625 C 6.835938 -0.421875 5.625 0 4.0625 0 L 1.015625 0 L 1.015625 -9.421875 L 4.28125 -9.421875 C 5.789062 -9.421875 6.957031 -9.03125 7.78125 -8.25 C 8.601562 -7.476562 9.015625 -6.363281 9.015625 -4.90625 Z M 6.375 -4.8125 C 6.375 -5.675781 6.203125 -6.316406 5.859375 -6.734375 C 5.515625 -7.148438 4.992188 -7.359375 4.296875 -7.359375 L 3.5625 -7.359375 L 3.5625 -2.09375 L 4.125 -2.09375 C 4.894531 -2.09375 5.460938 -2.316406 5.828125 -2.765625 C 6.191406 -3.210938 6.375 -3.894531 6.375 -4.8125 Z M 6.375 -4.8125 "/></g></g></g><g fill="#000000" fill-opacity="1"><g transform="translate(100.249811, 251.610101)"><g><path d="M 9.015625 -9.421875 L 9.015625 -3.75 C 9.015625 -2.519531 8.664062 -1.566406 7.96875 -0.890625 C 7.269531 -0.210938 6.265625 0.125 4.953125 0.125 C 3.671875 0.125 2.6875 -0.203125 2 -0.859375 C 1.3125 -1.515625 0.96875 -2.457031 0.96875 -3.6875 L 0.96875 -9.421875 L 3.515625 -9.421875 L 3.515625 -3.890625 C 3.515625 -3.222656 3.640625 -2.738281 3.890625 -2.4375 C 4.140625 -2.132812 4.507812 -1.984375 5 -1.984375 C 5.519531 -1.984375 5.894531 -2.132812 6.125 -2.4375 C 6.363281 -2.738281 6.484375 -3.226562 6.484375 -3.90625 L 6.484375 -9.421875 Z M 9.015625 -9.421875 "/></g></g></g><g fill="#000000" fill-opacity="1"><g transform="translate(113.67095, 251.610101)"><g><path d="M 7.171875 -2.859375 C 7.171875 -2.273438 7.019531 -1.753906 6.71875 -1.296875 C 6.425781 -0.847656 6 -0.5 5.4375 -0.25 C 4.882812 0 4.234375 0.125 3.484375 0.125 C 2.859375 0.125 2.332031 0.0820312 1.90625 0 C 1.476562 -0.09375 1.035156 -0.25 0.578125 -0.46875 L 0.578125 -2.734375 C 1.066406 -2.484375 1.570312 -2.285156 2.09375 -2.140625 C 2.613281 -2.003906 3.09375 -1.9375 3.53125 -1.9375 C 3.914062 -1.9375 4.191406 -2 4.359375 -2.125 C 4.535156 -2.257812 4.625 -2.429688 4.625 -2.640625 C 4.625 -2.765625 4.585938 -2.875 4.515625 -2.96875 C 4.453125 -3.070312 4.34375 -3.171875 4.1875 -3.265625 C 4.03125 -3.367188 3.613281 -3.570312 2.9375 -3.875 C 2.320312 -4.15625 1.859375 -4.425781 1.546875 -4.6875 C 1.242188 -4.945312 1.015625 -5.242188 0.859375 -5.578125 C 0.710938 -5.921875 0.640625 -6.328125 0.640625 -6.796875 C 0.640625 -7.660156 0.953125 -8.332031 1.578125 -8.8125 C 2.210938 -9.300781 3.082031 -9.546875 4.1875 -9.546875 C 5.164062 -9.546875 6.160156 -9.320312 7.171875 -8.875 L 6.390625 -6.90625 C 5.515625 -7.3125 4.753906 -7.515625 4.109375 -7.515625 C 3.785156 -7.515625 3.546875 -7.457031 3.390625 -7.34375 C 3.242188 -7.226562 3.171875 -7.082031 3.171875 -6.90625 C 3.171875 -6.71875 3.265625 -6.550781 3.453125 -6.40625 C 3.640625 -6.257812 4.160156 -5.992188 5.015625 -5.609375 C 5.828125 -5.242188 6.390625 -4.851562 6.703125 -4.4375 C 7.015625 -4.019531 7.171875 -3.492188 7.171875 -2.859375 Z M 7.171875 -2.859375 "/></g></g></g><g fill="#000000" fill-opacity="1"><g transform="translate(124.723161, 251.610101)"><g><path d="M 5.171875 0 L 2.625 0 L 2.625 -7.328125 L 0.328125 -7.328125 L 0.328125 -9.421875 L 7.46875 -9.421875 L 7.46875 -7.328125 L 5.171875 -7.328125 Z M 5.171875 0 "/></g></g></g><g fill="#000000" fill-opacity="1"><g transform="translate(135.955616, 251.610101)"><g><path d="M 3.5625 -3.421875 L 3.5625 0 L 1.015625 0 L 1.015625 -9.421875 L 4.109375 -9.421875 C 6.660156 -9.421875 7.9375 -8.488281 7.9375 -6.625 C 7.9375 -5.539062 7.40625 -4.703125 6.34375 -4.109375 L 9.078125 0 L 6.203125 0 L 4.203125 -3.421875 Z M 3.5625 -5.34375 L 4.03125 -5.34375 C 4.925781 -5.34375 5.375 -5.734375 5.375 -6.515625 C 5.375 -7.160156 4.9375 -7.484375 4.0625 -7.484375 L 3.5625 -7.484375 Z M 3.5625 -5.34375 "/></g></g></g><g fill="#000000" fill-opacity="1"><g transform="translate(148.321037, 251.610101)"><g><path d="M 1.015625 0 L 1.015625 -9.421875 L 3.578125 -9.421875 L 3.578125 0 Z M 1.015625 0 "/></g></g></g><g fill="#000000" fill-opacity="1"><g transform="translate(156.354159, 251.610101)"><g><path d="M 6.796875 0 L 6.328125 -1.765625 L 3.265625 -1.765625 L 2.796875 0 L 0 0 L 3.078125 -9.453125 L 6.46875 -9.453125 L 9.578125 0 Z M 5.796875 -3.84375 L 5.390625 -5.390625 C 5.296875 -5.734375 5.179688 -6.175781 5.046875 -6.71875 C 4.910156 -7.269531 4.820312 -7.664062 4.78125 -7.90625 C 4.738281 -7.6875 4.660156 -7.320312 4.546875 -6.8125 C 4.441406 -6.3125 4.191406 -5.320312 3.796875 -3.84375 Z M 5.796875 -3.84375 "/></g></g></g><g fill="#000000" fill-opacity="1"><g transform="translate(169.369753, 251.610101)"><g><path d="M 1.015625 0 L 1.015625 -9.421875 L 3.5625 -9.421875 L 3.5625 -2.046875 L 7.1875 -2.046875 L 7.1875 0 Z M 1.015625 0 "/></g></g></g><g fill="#000000" fill-opacity="1"><g transform="translate(180.486337, 251.610101)"><g><path d="M 0.28125 -2.53125 L 0.28125 -4.546875 L 3.921875 -4.546875 L 3.921875 -2.53125 Z M 0.28125 -2.53125 "/></g></g></g><g fill="#000000" fill-opacity="1"><g transform="translate(188.120347, 251.610101)"><g><path d="M 5.203125 -7.46875 C 4.597656 -7.46875 4.125 -7.21875 3.78125 -6.71875 C 3.445312 -6.21875 3.28125 -5.535156 3.28125 -4.671875 C 3.28125 -2.859375 3.96875 -1.953125 5.34375 -1.953125 C 5.757812 -1.953125 6.160156 -2.007812 6.546875 -2.125 C 6.941406 -2.238281 7.335938 -2.378906 7.734375 -2.546875 L 7.734375 -0.390625 C 6.953125 -0.046875 6.066406 0.125 5.078125 0.125 C 3.648438 0.125 2.554688 -0.285156 1.796875 -1.109375 C 1.046875 -1.929688 0.671875 -3.125 0.671875 -4.6875 C 0.671875 -5.65625 0.851562 -6.507812 1.21875 -7.25 C 1.582031 -7.988281 2.109375 -8.554688 2.796875 -8.953125 C 3.492188 -9.347656 4.304688 -9.546875 5.234375 -9.546875 C 6.253906 -9.546875 7.226562 -9.328125 8.15625 -8.890625 L 7.375 -6.890625 C 7.019531 -7.046875 6.671875 -7.179688 6.328125 -7.296875 C 5.984375 -7.410156 5.609375 -7.46875 5.203125 -7.46875 Z M 5.203125 -7.46875 "/></g></g></g><g fill="#000000" fill-opacity="1"><g transform="translate(200.118847, 251.610101)"><g><path d="M 9.828125 -4.71875 C 9.828125 -3.132812 9.4375 -1.929688 8.65625 -1.109375 C 7.882812 -0.285156 6.75 0.125 5.25 0.125 C 3.769531 0.125 2.632812 -0.285156 1.84375 -1.109375 C 1.0625 -1.941406 0.671875 -3.148438 0.671875 -4.734375 C 0.671875 -6.296875 1.0625 -7.488281 1.84375 -8.3125 C 2.625 -9.144531 3.765625 -9.5625 5.265625 -9.5625 C 6.765625 -9.5625 7.898438 -9.148438 8.671875 -8.328125 C 9.441406 -7.515625 9.828125 -6.3125 9.828125 -4.71875 Z M 3.34375 -4.71875 C 3.34375 -2.894531 3.976562 -1.984375 5.25 -1.984375 C 5.894531 -1.984375 6.367188 -2.203125 6.671875 -2.640625 C 6.984375 -3.085938 7.140625 -3.78125 7.140625 -4.71875 C 7.140625 -5.65625 6.984375 -6.347656 6.671875 -6.796875 C 6.359375 -7.242188 5.890625 -7.46875 5.265625 -7.46875 C 3.984375 -7.46875 3.34375 -6.550781 3.34375 -4.71875 Z M 3.34375 -4.71875 "/></g></g></g><g fill="#000000" fill-opacity="1"><g transform="translate(214.067843, 251.610101)"><g><path d="M 5.125 0 L 3.1875 -6.78125 L 3.140625 -6.78125 C 3.222656 -5.625 3.265625 -4.726562 3.265625 -4.09375 L 3.265625 0 L 1.015625 0 L 1.015625 -9.421875 L 4.40625 -9.421875 L 6.375 -2.734375 L 6.421875 -2.734375 L 8.34375 -9.421875 L 11.734375 -9.421875 L 11.734375 0 L 9.40625 0 L 9.40625 -4.125 C 9.40625 -4.34375 9.40625 -4.582031 9.40625 -4.84375 C 9.414062 -5.101562 9.445312 -5.742188 9.5 -6.765625 L 9.4375 -6.765625 L 7.546875 0 Z M 5.125 0 "/></g></g></g><g fill="#000000" fill-opacity="1"><g transform="translate(230.25702, 251.610101)"><g><path d="M 5.125 0 L 3.1875 -6.78125 L 3.140625 -6.78125 C 3.222656 -5.625 3.265625 -4.726562 3.265625 -4.09375 L 3.265625 0 L 1.015625 0 L 1.015625 -9.421875 L 4.40625 -9.421875 L 6.375 -2.734375 L 6.421875 -2.734375 L 8.34375 -9.421875 L 11.734375 -9.421875 L 11.734375 0 L 9.40625 0 L 9.40625 -4.125 C 9.40625 -4.34375 9.40625 -4.582031 9.40625 -4.84375 C 9.414062 -5.101562 9.445312 -5.742188 9.5 -6.765625 L 9.4375 -6.765625 L 7.546875 0 Z M 5.125 0 "/></g></g></g><g fill="#000000" fill-opacity="1"><g transform="translate(246.446197, 251.610101)"><g><path d="M 6.609375 0 L 1.015625 0 L 1.015625 -9.421875 L 6.609375 -9.421875 L 6.609375 -7.375 L 3.5625 -7.375 L 3.5625 -5.890625 L 6.375 -5.890625 L 6.375 -3.84375 L 3.5625 -3.84375 L 3.5625 -2.078125 L 6.609375 -2.078125 Z M 6.609375 0 "/></g></g></g><g fill="#000000" fill-opacity="1"><g transform="translate(257.125033, 251.610101)"><g><path d="M 3.5625 -3.421875 L 3.5625 0 L 1.015625 0 L 1.015625 -9.421875 L 4.109375 -9.421875 C 6.660156 -9.421875 7.9375 -8.488281 7.9375 -6.625 C 7.9375 -5.539062 7.40625 -4.703125 6.34375 -4.109375 L 9.078125 0 L 6.203125 0 L 4.203125 -3.421875 Z M 3.5625 -5.34375 L 4.03125 -5.34375 C 4.925781 -5.34375 5.375 -5.734375 5.375 -6.515625 C 5.375 -7.160156 4.9375 -7.484375 4.0625 -7.484375 L 3.5625 -7.484375 Z M 3.5625 -5.34375 "/></g></g></g><g fill="#000000" fill-opacity="1"><g transform="translate(269.490465, 251.610101)"><g><path d="M 5.203125 -7.46875 C 4.597656 -7.46875 4.125 -7.21875 3.78125 -6.71875 C 3.445312 -6.21875 3.28125 -5.535156 3.28125 -4.671875 C 3.28125 -2.859375 3.96875 -1.953125 5.34375 -1.953125 C 5.757812 -1.953125 6.160156 -2.007812 6.546875 -2.125 C 6.941406 -2.238281 7.335938 -2.378906 7.734375 -2.546875 L 7.734375 -0.390625 C 6.953125 -0.046875 6.066406 0.125 5.078125 0.125 C 3.648438 0.125 2.554688 -0.285156 1.796875 -1.109375 C 1.046875 -1.929688 0.671875 -3.125 0.671875 -4.6875 C 0.671875 -5.65625 0.851562 -6.507812 1.21875 -7.25 C 1.582031 -7.988281 2.109375 -8.554688 2.796875 -8.953125 C 3.492188 -9.347656 4.304688 -9.546875 5.234375 -9.546875 C 6.253906 -9.546875 7.226562 -9.328125 8.15625 -8.890625 L 7.375 -6.890625 C 7.019531 -7.046875 6.671875 -7.179688 6.328125 -7.296875 C 5.984375 -7.410156 5.609375 -7.46875 5.203125 -7.46875 Z M 5.203125 -7.46875 "/></g></g></g><g fill="#000000" fill-opacity="1"><g transform="translate(281.488954, 251.610101)"><g><path d="M 1.015625 0 L 1.015625 -9.421875 L 3.578125 -9.421875 L 3.578125 0 Z M 1.015625 0 "/></g></g></g><g fill="#000000" fill-opacity="1"><g transform="translate(289.522065, 251.610101)"><g><path d="M 6.796875 0 L 6.328125 -1.765625 L 3.265625 -1.765625 L 2.796875 0 L 0 0 L 3.078125 -9.453125 L 6.46875 -9.453125 L 9.578125 0 Z M 5.796875 -3.84375 L 5.390625 -5.390625 C 5.296875 -5.734375 5.179688 -6.175781 5.046875 -6.71875 C 4.910156 -7.269531 4.820312 -7.664062 4.78125 -7.90625 C 4.738281 -7.6875 4.660156 -7.320312 4.546875 -6.8125 C 4.441406 -6.3125 4.191406 -5.320312 3.796875 -3.84375 Z M 5.796875 -3.84375 "/></g></g></g><g fill="#000000" fill-opacity="1"><g transform="translate(302.537659, 251.610101)"><g><path d="M 1.015625 0 L 1.015625 -9.421875 L 3.5625 -9.421875 L 3.5625 -2.046875 L 7.1875 -2.046875 L 7.1875 0 Z M 1.015625 0 "/></g></g></g></svg>