<svg xmlns="http://www.w3.org/2000/svg" xmlns:xlink="http://www.w3.org/1999/xlink" width="500" zoomAndPan="magnify" viewBox="0 0 375 374.999991" height="500" preserveAspectRatio="xMidYMid meet" version="1.0"><defs><g/><clipPath id="4f524ed575"><path d="M 37.5 118.054688 L 337.5 118.054688 L 337.5 234.929688 L 37.5 234.929688 Z M 37.5 118.054688 " clip-rule="nonzero"/></clipPath></defs><g clip-path="url(#4f524ed575)"><path fill="#000000" d="M 37.5 118.054688 L 337.449219 118.054688 L 337.449219 234.929688 L 37.5 234.929688 Z M 37.5 118.054688 " fill-opacity="1" fill-rule="nonzero"/></g><g fill="#ffffff" fill-opacity="1"><g transform="translate(54.366934, 175.81394)"><g><path d="M 34.4375 0 L 23.515625 0 L 16.453125 -13.6875 L 13.578125 -11.96875 L 13.578125 0 L 3.859375 0 L 3.859375 -35.78125 L 13.578125 -35.78125 L 13.578125 -20.234375 C 14.066406 -21.203125 15.054688 -22.726562 16.546875 -24.8125 L 24.0625 -35.78125 L 34.625 -35.78125 L 23.34375 -19.75 Z M 34.4375 0 "/></g></g></g><g fill="#ffffff" fill-opacity="1"><g transform="translate(88.803163, 175.81394)"><g><path d="M 25.109375 0 L 3.859375 0 L 3.859375 -35.78125 L 25.109375 -35.78125 L 25.109375 -28.03125 L 13.53125 -28.03125 L 13.53125 -22.390625 L 24.25 -22.390625 L 24.25 -14.640625 L 13.53125 -14.640625 L 13.53125 -7.875 L 25.109375 -7.875 Z M 25.109375 0 "/></g></g></g><g fill="#ffffff" fill-opacity="1"><g transform="translate(116.312987, 175.81394)"><g><path d="M 16.640625 -22.515625 L 22.8125 -35.78125 L 33.28125 -35.78125 L 21.515625 -13.96875 L 21.515625 0 L 11.765625 0 L 11.765625 -13.6875 L 0 -35.78125 L 10.53125 -35.78125 Z M 16.640625 -22.515625 "/></g></g></g><g fill="#ffffff" fill-opacity="1"><g transform="translate(149.598894, 175.81394)"><g><path d="M 27.265625 -10.859375 C 27.265625 -8.640625 26.703125 -6.671875 25.578125 -4.953125 C 24.453125 -3.234375 22.828125 -1.894531 20.703125 -0.9375 C 18.585938 0.0078125 16.097656 0.484375 13.234375 0.484375 C 10.859375 0.484375 8.863281 0.316406 7.25 -0.015625 C 5.632812 -0.347656 3.953125 -0.929688 2.203125 -1.765625 L 2.203125 -10.375 C 4.046875 -9.425781 5.960938 -8.6875 7.953125 -8.15625 C 9.941406 -7.625 11.769531 -7.359375 13.4375 -7.359375 C 14.875 -7.359375 15.925781 -7.609375 16.59375 -8.109375 C 17.257812 -8.609375 17.59375 -9.25 17.59375 -10.03125 C 17.59375 -10.519531 17.457031 -10.945312 17.1875 -11.3125 C 16.925781 -11.6875 16.492188 -12.0625 15.890625 -12.4375 C 15.296875 -12.8125 13.710938 -13.578125 11.140625 -14.734375 C 8.804688 -15.796875 7.054688 -16.820312 5.890625 -17.8125 C 4.722656 -18.8125 3.859375 -19.953125 3.296875 -21.234375 C 2.734375 -22.523438 2.453125 -24.054688 2.453125 -25.828125 C 2.453125 -29.117188 3.648438 -31.6875 6.046875 -33.53125 C 8.441406 -35.375 11.738281 -36.296875 15.9375 -36.296875 C 19.632812 -36.296875 23.410156 -35.441406 27.265625 -33.734375 L 24.296875 -26.265625 C 20.953125 -27.796875 18.066406 -28.5625 15.640625 -28.5625 C 14.378906 -28.5625 13.460938 -28.335938 12.890625 -27.890625 C 12.328125 -27.453125 12.046875 -26.910156 12.046875 -26.265625 C 12.046875 -25.554688 12.40625 -24.925781 13.125 -24.375 C 13.851562 -23.820312 15.828125 -22.8125 19.046875 -21.34375 C 22.128906 -19.957031 24.269531 -18.46875 25.46875 -16.875 C 26.664062 -15.28125 27.265625 -13.273438 27.265625 -10.859375 Z M 27.265625 -10.859375 "/></g></g></g><g fill="#ffffff" fill-opacity="1"><g transform="translate(178.528264, 175.81394)"><g><path d="M 19.65625 0 L 9.984375 0 L 9.984375 -27.875 L 1.25 -27.875 L 1.25 -35.78125 L 28.359375 -35.78125 L 28.359375 -27.875 L 19.65625 -27.875 Z M 19.65625 0 "/></g></g></g><g fill="#ffffff" fill-opacity="1"><g transform="translate(208.142931, 175.81394)"><g><path d="M 37.34375 -17.9375 C 37.34375 -11.914062 35.863281 -7.335938 32.90625 -4.203125 C 29.957031 -1.078125 25.640625 0.484375 19.953125 0.484375 C 14.335938 0.484375 10.03125 -1.085938 7.03125 -4.234375 C 4.039062 -7.378906 2.546875 -11.960938 2.546875 -17.984375 C 2.546875 -23.941406 4.035156 -28.488281 7.015625 -31.625 C 9.992188 -34.769531 14.320312 -36.34375 20 -36.34375 C 25.6875 -36.34375 30 -34.785156 32.9375 -31.671875 C 35.875 -28.554688 37.34375 -23.976562 37.34375 -17.9375 Z M 12.734375 -17.9375 C 12.734375 -11.019531 15.140625 -7.5625 19.953125 -7.5625 C 22.398438 -7.5625 24.210938 -8.398438 25.390625 -10.078125 C 26.578125 -11.765625 27.171875 -14.382812 27.171875 -17.9375 C 27.171875 -21.507812 26.566406 -24.148438 25.359375 -25.859375 C 24.160156 -27.566406 22.375 -28.421875 20 -28.421875 C 15.15625 -28.421875 12.734375 -24.925781 12.734375 -17.9375 Z M 12.734375 -17.9375 "/></g></g></g><g fill="#ffffff" fill-opacity="1"><g transform="translate(248.08602, 175.81394)"><g><path d="M 37.9375 0 L 25.265625 0 L 12.1875 -25.203125 L 11.96875 -25.203125 C 12.28125 -21.242188 12.4375 -18.21875 12.4375 -16.125 L 12.4375 0 L 3.859375 0 L 3.859375 -35.78125 L 16.5 -35.78125 L 29.515625 -10.921875 L 29.65625 -10.921875 C 29.4375 -14.523438 29.328125 -17.421875 29.328125 -19.609375 L 29.328125 -35.78125 L 37.9375 -35.78125 Z M 37.9375 0 "/></g></g></g><g fill="#ffffff" fill-opacity="1"><g transform="translate(289.889217, 175.81394)"><g><path d="M 25.109375 0 L 3.859375 0 L 3.859375 -35.78125 L 25.109375 -35.78125 L 25.109375 -28.03125 L 13.53125 -28.03125 L 13.53125 -22.390625 L 24.25 -22.390625 L 24.25 -14.640625 L 13.53125 -14.640625 L 13.53125 -7.875 L 25.109375 -7.875 Z M 25.109375 0 "/></g></g></g><g fill="#ffffff" fill-opacity="1"><g transform="translate(83.952978, 213.219977)"><g><path d="M 9.09375 -14.96875 L 10.9375 -14.96875 C 12.738281 -14.96875 14.066406 -15.269531 14.921875 -15.875 C 15.785156 -16.476562 16.21875 -17.425781 16.21875 -18.71875 C 16.21875 -19.988281 15.78125 -20.894531 14.90625 -21.4375 C 14.03125 -21.976562 12.671875 -22.25 10.828125 -22.25 L 9.09375 -22.25 Z M 9.09375 -10.328125 L 9.09375 0 L 3.390625 0 L 3.390625 -26.921875 L 11.234375 -26.921875 C 14.890625 -26.921875 17.59375 -26.253906 19.34375 -24.921875 C 21.101562 -23.585938 21.984375 -21.566406 21.984375 -18.859375 C 21.984375 -17.273438 21.546875 -15.863281 20.671875 -14.625 C 19.804688 -13.394531 18.578125 -12.429688 16.984375 -11.734375 C 21.035156 -5.679688 23.675781 -1.769531 24.90625 0 L 18.5625 0 L 12.140625 -10.328125 Z M 9.09375 -10.328125 "/></g></g></g><g fill="#ffffff" fill-opacity="1"><g transform="translate(114.015776, 213.219977)"><g><path d="M 27.828125 -13.5 C 27.828125 -9.039062 26.722656 -5.613281 24.515625 -3.21875 C 22.304688 -0.820312 19.140625 0.375 15.015625 0.375 C 10.890625 0.375 7.71875 -0.820312 5.5 -3.21875 C 3.289062 -5.613281 2.1875 -9.050781 2.1875 -13.53125 C 2.1875 -18.019531 3.296875 -21.441406 5.515625 -23.796875 C 7.734375 -26.160156 10.910156 -27.34375 15.046875 -27.34375 C 19.179688 -27.34375 22.34375 -26.148438 24.53125 -23.765625 C 26.726562 -21.390625 27.828125 -17.96875 27.828125 -13.5 Z M 8.171875 -13.5 C 8.171875 -10.488281 8.742188 -8.222656 9.890625 -6.703125 C 11.035156 -5.179688 12.742188 -4.421875 15.015625 -4.421875 C 19.566406 -4.421875 21.84375 -7.445312 21.84375 -13.5 C 21.84375 -19.5625 19.578125 -22.59375 15.046875 -22.59375 C 12.773438 -22.59375 11.0625 -21.828125 9.90625 -20.296875 C 8.75 -18.773438 8.171875 -16.507812 8.171875 -13.5 Z M 8.171875 -13.5 "/></g></g></g><g fill="#ffffff" fill-opacity="1"><g transform="translate(149.197537, 213.219977)"><g><path d="M 27.828125 -13.5 C 27.828125 -9.039062 26.722656 -5.613281 24.515625 -3.21875 C 22.304688 -0.820312 19.140625 0.375 15.015625 0.375 C 10.890625 0.375 7.71875 -0.820312 5.5 -3.21875 C 3.289062 -5.613281 2.1875 -9.050781 2.1875 -13.53125 C 2.1875 -18.019531 3.296875 -21.441406 5.515625 -23.796875 C 7.734375 -26.160156 10.910156 -27.34375 15.046875 -27.34375 C 19.179688 -27.34375 22.34375 -26.148438 24.53125 -23.765625 C 26.726562 -21.390625 27.828125 -17.96875 27.828125 -13.5 Z M 8.171875 -13.5 C 8.171875 -10.488281 8.742188 -8.222656 9.890625 -6.703125 C 11.035156 -5.179688 12.742188 -4.421875 15.015625 -4.421875 C 19.566406 -4.421875 21.84375 -7.445312 21.84375 -13.5 C 21.84375 -19.5625 19.578125 -22.59375 15.046875 -22.59375 C 12.773438 -22.59375 11.0625 -21.828125 9.90625 -20.296875 C 8.75 -18.773438 8.171875 -16.507812 8.171875 -13.5 Z M 8.171875 -13.5 "/></g></g></g><g fill="#ffffff" fill-opacity="1"><g transform="translate(184.379294, 213.219977)"><g><path d="M 9 0 L 3.390625 0 L 3.390625 -26.921875 L 18.828125 -26.921875 L 18.828125 -22.25 L 9 -22.25 L 9 -15.3125 L 18.140625 -15.3125 L 18.140625 -10.640625 L 9 -10.640625 Z M 9 0 "/></g></g></g><g fill="#ffffff" fill-opacity="1"><g transform="translate(210.24381, 213.219977)"><g><path d="M 3.390625 0 L 3.390625 -26.921875 L 9.09375 -26.921875 L 9.09375 0 Z M 3.390625 0 "/></g></g></g><g fill="#ffffff" fill-opacity="1"><g transform="translate(227.895885, 213.219977)"><g><path d="M 27.28125 0 L 20.015625 0 L 8.3125 -20.375 L 8.140625 -20.375 C 8.367188 -16.769531 8.484375 -14.203125 8.484375 -12.671875 L 8.484375 0 L 3.390625 0 L 3.390625 -26.921875 L 10.59375 -26.921875 L 22.28125 -6.765625 L 22.40625 -6.765625 C 22.226562 -10.265625 22.140625 -12.738281 22.140625 -14.1875 L 22.140625 -26.921875 L 27.28125 -26.921875 Z M 27.28125 0 "/></g></g></g><g fill="#ffffff" fill-opacity="1"><g transform="translate(263.722116, 213.219977)"><g><path d="M 13.609375 -15.125 L 24.296875 -15.125 L 24.296875 -1.15625 C 22.566406 -0.59375 20.9375 -0.195312 19.40625 0.03125 C 17.875 0.257812 16.3125 0.375 14.71875 0.375 C 10.65625 0.375 7.550781 -0.816406 5.40625 -3.203125 C 3.257812 -5.597656 2.1875 -9.03125 2.1875 -13.5 C 2.1875 -17.84375 3.429688 -21.226562 5.921875 -23.65625 C 8.410156 -26.09375 11.859375 -27.3125 16.265625 -27.3125 C 19.023438 -27.3125 21.6875 -26.757812 24.25 -25.65625 L 22.359375 -21.09375 C 20.390625 -22.070312 18.34375 -22.5625 16.21875 -22.5625 C 13.757812 -22.5625 11.785156 -21.734375 10.296875 -20.078125 C 8.804688 -18.421875 8.0625 -16.191406 8.0625 -13.390625 C 8.0625 -10.460938 8.660156 -8.226562 9.859375 -6.6875 C 11.054688 -5.15625 12.796875 -4.390625 15.078125 -4.390625 C 16.273438 -4.390625 17.488281 -4.507812 18.71875 -4.75 L 18.71875 -10.375 L 13.609375 -10.375 Z M 13.609375 -15.125 "/></g></g></g><path stroke-linecap="butt" transform="matrix(0.75, 0, 0, 0.75, 45.495093, 129.749331)" fill="none" stroke-linejoin="miter" d="M 0.00133472 2.000891 L 378.516985 2.000891 " stroke="#ffffff" stroke-width="4" stroke-opacity="1" stroke-miterlimit="4"/><path stroke-linecap="butt" transform="matrix(0.75, 0, 0, 0.75, 45.55689, 221.961504)" fill="none" stroke-linejoin="miter" d="M 0.00227126 1.999245 L 378.512713 1.999245 " stroke="#ffffff" stroke-width="4" stroke-opacity="1" stroke-miterlimit="4"/><path stroke-linecap="butt" transform="matrix(0, -0.75, 0.75, 0, 44.052364, 224.957006)" fill="none" stroke-linejoin="miter" d="M -0.0000336296 1.99789 L 126.947891 1.99789 " stroke="#ffffff" stroke-width="4" stroke-opacity="1" stroke-miterlimit="4"/><path stroke-linecap="butt" transform="matrix(0, -0.75, 0.75, 0, 327.876751, 224.957006)" fill="none" stroke-linejoin="miter" d="M -0.0000336296 1.997666 L 126.947891 1.997666 " stroke="#ffffff" stroke-width="4" stroke-opacity="1" stroke-miterlimit="4"/><g fill="#000000" fill-opacity="1"><g transform="translate(64.659867, 251.61013)"><g><path d="M 1.015625 0 L 1.015625 -9.421875 L 3.578125 -9.421875 L 3.578125 0 Z M 1.015625 0 "/></g></g></g><g fill="#000000" fill-opacity="1"><g transform="translate(72.692989, 251.61013)"><g><path d="M 9.984375 0 L 6.640625 0 L 3.203125 -6.625 L 3.15625 -6.625 C 3.226562 -5.582031 3.265625 -4.789062 3.265625 -4.25 L 3.265625 0 L 1.015625 0 L 1.015625 -9.421875 L 4.34375 -9.421875 L 7.765625 -2.875 L 7.796875 -2.875 C 7.742188 -3.820312 7.71875 -4.582031 7.71875 -5.15625 L 7.71875 -9.421875 L 9.984375 -9.421875 Z M 9.984375 0 "/></g></g></g><g fill="#000000" fill-opacity="1"><g transform="translate(87.131221, 251.61013)"><g><path d="M 9.015625 -4.90625 C 9.015625 -3.332031 8.578125 -2.117188 7.703125 -1.265625 C 6.835938 -0.421875 5.625 0 4.0625 0 L 1.015625 0 L 1.015625 -9.421875 L 4.28125 -9.421875 C 5.789062 -9.421875 6.957031 -9.03125 7.78125 -8.25 C 8.601562 -7.476562 9.015625 -6.363281 9.015625 -4.90625 Z M 6.375 -4.8125 C 6.375 -5.675781 6.203125 -6.316406 5.859375 -6.734375 C 5.515625 -7.148438 4.992188 -7.359375 4.296875 -7.359375 L 3.5625 -7.359375 L 3.5625 -2.09375 L 4.125 -2.09375 C 4.894531 -2.09375 5.460938 -2.316406 5.828125 -2.765625 C 6.191406 -3.210938 6.375 -3.894531 6.375 -4.8125 Z M 6.375 -4.8125 "/></g></g></g><g fill="#000000" fill-opacity="1"><g transform="translate(100.249811, 251.61013)"><g><path d="M 9.015625 -9.421875 L 9.015625 -3.75 C 9.015625 -2.519531 8.664062 -1.566406 7.96875 -0.890625 C 7.269531 -0.210938 6.265625 0.125 4.953125 0.125 C 3.671875 0.125 2.6875 -0.203125 2 -0.859375 C 1.3125 -1.515625 0.96875 -2.457031 0.96875 -3.6875 L 0.96875 -9.421875 L 3.515625 -9.421875 L 3.515625 -3.890625 C 3.515625 -3.222656 3.640625 -2.738281 3.890625 -2.4375 C 4.140625 -2.132812 4.507812 -1.984375 5 -1.984375 C 5.519531 -1.984375 5.894531 -2.132812 6.125 -2.4375 C 6.363281 -2.738281 6.484375 -3.226562 6.484375 -3.90625 L 6.484375 -9.421875 Z M 9.015625 -9.421875 "/></g></g></g><g fill="#000000" fill-opacity="1"><g transform="translate(113.67095, 251.61013)"><g><path d="M 7.171875 -2.859375 C 7.171875 -2.273438 7.019531 -1.753906 6.71875 -1.296875 C 6.425781 -0.847656 6 -0.5 5.4375 -0.25 C 4.882812 0 4.234375 0.125 3.484375 0.125 C 2.859375 0.125 2.332031 0.0820312 1.90625 0 C 1.476562 -0.09375 1.035156 -0.25 0.578125 -0.46875 L 0.578125 -2.734375 C 1.066406 -2.484375 1.570312 -2.285156 2.09375 -2.140625 C 2.613281 -2.003906 3.09375 -1.9375 3.53125 -1.9375 C 3.914062 -1.9375 4.191406 -2 4.359375 -2.125 C 4.535156 -2.257812 4.625 -2.429688 4.625 -2.640625 C 4.625 -2.765625 4.585938 -2.875 4.515625 -2.96875 C 4.453125 -3.070312 4.34375 -3.171875 4.1875 -3.265625 C 4.03125 -3.367188 3.613281 -3.570312 2.9375 -3.875 C 2.320312 -4.15625 1.859375 -4.425781 1.546875 -4.6875 C 1.242188 -4.945312 1.015625 -5.242188 0.859375 -5.578125 C 0.710938 -5.921875 0.640625 -6.328125 0.640625 -6.796875 C 0.640625 -7.660156 0.953125 -8.332031 1.578125 -8.8125 C 2.210938 -9.300781 3.082031 -9.546875 4.1875 -9.546875 C 5.164062 -9.546875 6.160156 -9.320312 7.171875 -8.875 L 6.390625 -6.90625 C 5.515625 -7.3125 4.753906 -7.515625 4.109375 -7.515625 C 3.785156 -7.515625 3.546875 -7.457031 3.390625 -7.34375 C 3.242188 -7.226562 3.171875 -7.082031 3.171875 -6.90625 C 3.171875 -6.71875 3.265625 -6.550781 3.453125 -6.40625 C 3.640625 -6.257812 4.160156 -5.992188 5.015625 -5.609375 C 5.828125 -5.242188 6.390625 -4.851562 6.703125 -4.4375 C 7.015625 -4.019531 7.171875 -3.492188 7.171875 -2.859375 Z M 7.171875 -2.859375 "/></g></g></g><g fill="#000000" fill-opacity="1"><g transform="translate(124.723161, 251.61013)"><g><path d="M 5.171875 0 L 2.625 0 L 2.625 -7.328125 L 0.328125 -7.328125 L 0.328125 -9.421875 L 7.46875 -9.421875 L 7.46875 -7.328125 L 5.171875 -7.328125 Z M 5.171875 0 "/></g></g></g><g fill="#000000" fill-opacity="1"><g transform="translate(135.955616, 251.61013)"><g><path d="M 3.5625 -3.421875 L 3.5625 0 L 1.015625 0 L 1.015625 -9.421875 L 4.109375 -9.421875 C 6.660156 -9.421875 7.9375 -8.488281 7.9375 -6.625 C 7.9375 -5.539062 7.40625 -4.703125 6.34375 -4.109375 L 9.078125 0 L 6.203125 0 L 4.203125 -3.421875 Z M 3.5625 -5.34375 L 4.03125 -5.34375 C 4.925781 -5.34375 5.375 -5.734375 5.375 -6.515625 C 5.375 -7.160156 4.9375 -7.484375 4.0625 -7.484375 L 3.5625 -7.484375 Z M 3.5625 -5.34375 "/></g></g></g><g fill="#000000" fill-opacity="1"><g transform="translate(148.321037, 251.61013)"><g><path d="M 1.015625 0 L 1.015625 -9.421875 L 3.578125 -9.421875 L 3.578125 0 Z M 1.015625 0 "/></g></g></g><g fill="#000000" fill-opacity="1"><g transform="translate(156.354159, 251.61013)"><g><path d="M 6.796875 0 L 6.328125 -1.765625 L 3.265625 -1.765625 L 2.796875 0 L 0 0 L 3.078125 -9.453125 L 6.46875 -9.453125 L 9.578125 0 Z M 5.796875 -3.84375 L 5.390625 -5.390625 C 5.296875 -5.734375 5.179688 -6.175781 5.046875 -6.71875 C 4.910156 -7.269531 4.820312 -7.664062 4.78125 -7.90625 C 4.738281 -7.6875 4.660156 -7.320312 4.546875 -6.8125 C 4.441406 -6.3125 4.191406 -5.320312 3.796875 -3.84375 Z M 5.796875 -3.84375 "/></g></g></g><g fill="#000000" fill-opacity="1"><g transform="translate(169.369753, 251.61013)"><g><path d="M 1.015625 0 L 1.015625 -9.421875 L 3.5625 -9.421875 L 3.5625 -2.046875 L 7.1875 -2.046875 L 7.1875 0 Z M 1.015625 0 "/></g></g></g><g fill="#000000" fill-opacity="1"><g transform="translate(180.486337, 251.61013)"><g><path d="M 0.28125 -2.53125 L 0.28125 -4.546875 L 3.921875 -4.546875 L 3.921875 -2.53125 Z M 0.28125 -2.53125 "/></g></g></g><g fill="#000000" fill-opacity="1"><g transform="translate(188.120347, 251.61013)"><g><path d="M 5.203125 -7.46875 C 4.597656 -7.46875 4.125 -7.21875 3.78125 -6.71875 C 3.445312 -6.21875 3.28125 -5.535156 3.28125 -4.671875 C 3.28125 -2.859375 3.96875 -1.953125 5.34375 -1.953125 C 5.757812 -1.953125 6.160156 -2.007812 6.546875 -2.125 C 6.941406 -2.238281 7.335938 -2.378906 7.734375 -2.546875 L 7.734375 -0.390625 C 6.953125 -0.046875 6.066406 0.125 5.078125 0.125 C 3.648438 0.125 2.554688 -0.285156 1.796875 -1.109375 C 1.046875 -1.929688 0.671875 -3.125 0.671875 -4.6875 C 0.671875 -5.65625 0.851562 -6.507812 1.21875 -7.25 C 1.582031 -7.988281 2.109375 -8.554688 2.796875 -8.953125 C 3.492188 -9.347656 4.304688 -9.546875 5.234375 -9.546875 C 6.253906 -9.546875 7.226562 -9.328125 8.15625 -8.890625 L 7.375 -6.890625 C 7.019531 -7.046875 6.671875 -7.179688 6.328125 -7.296875 C 5.984375 -7.410156 5.609375 -7.46875 5.203125 -7.46875 Z M 5.203125 -7.46875 "/></g></g></g><g fill="#000000" fill-opacity="1"><g transform="translate(200.118847, 251.61013)"><g><path d="M 9.828125 -4.71875 C 9.828125 -3.132812 9.4375 -1.929688 8.65625 -1.109375 C 7.882812 -0.285156 6.75 0.125 5.25 0.125 C 3.769531 0.125 2.632812 -0.285156 1.84375 -1.109375 C 1.0625 -1.941406 0.671875 -3.148438 0.671875 -4.734375 C 0.671875 -6.296875 1.0625 -7.488281 1.84375 -8.3125 C 2.625 -9.144531 3.765625 -9.5625 5.265625 -9.5625 C 6.765625 -9.5625 7.898438 -9.148438 8.671875 -8.328125 C 9.441406 -7.515625 9.828125 -6.3125 9.828125 -4.71875 Z M 3.34375 -4.71875 C 3.34375 -2.894531 3.976562 -1.984375 5.25 -1.984375 C 5.894531 -1.984375 6.367188 -2.203125 6.671875 -2.640625 C 6.984375 -3.085938 7.140625 -3.78125 7.140625 -4.71875 C 7.140625 -5.65625 6.984375 -6.347656 6.671875 -6.796875 C 6.359375 -7.242188 5.890625 -7.46875 5.265625 -7.46875 C 3.984375 -7.46875 3.34375 -6.550781 3.34375 -4.71875 Z M 3.34375 -4.71875 "/></g></g></g><g fill="#000000" fill-opacity="1"><g transform="translate(214.067843, 251.61013)"><g><path d="M 5.125 0 L 3.1875 -6.78125 L 3.140625 -6.78125 C 3.222656 -5.625 3.265625 -4.726562 3.265625 -4.09375 L 3.265625 0 L 1.015625 0 L 1.015625 -9.421875 L 4.40625 -9.421875 L 6.375 -2.734375 L 6.421875 -2.734375 L 8.34375 -9.421875 L 11.734375 -9.421875 L 11.734375 0 L 9.40625 0 L 9.40625 -4.125 C 9.40625 -4.34375 9.40625 -4.582031 9.40625 -4.84375 C 9.414062 -5.101562 9.445312 -5.742188 9.5 -6.765625 L 9.4375 -6.765625 L 7.546875 0 Z M 5.125 0 "/></g></g></g><g fill="#000000" fill-opacity="1"><g transform="translate(230.25702, 251.61013)"><g><path d="M 5.125 0 L 3.1875 -6.78125 L 3.140625 -6.78125 C 3.222656 -5.625 3.265625 -4.726562 3.265625 -4.09375 L 3.265625 0 L 1.015625 0 L 1.015625 -9.421875 L 4.40625 -9.421875 L 6.375 -2.734375 L 6.421875 -2.734375 L 8.34375 -9.421875 L 11.734375 -9.421875 L 11.734375 0 L 9.40625 0 L 9.40625 -4.125 C 9.40625 -4.34375 9.40625 -4.582031 9.40625 -4.84375 C 9.414062 -5.101562 9.445312 -5.742188 9.5 -6.765625 L 9.4375 -6.765625 L 7.546875 0 Z M 5.125 0 "/></g></g></g><g fill="#000000" fill-opacity="1"><g transform="translate(246.446197, 251.61013)"><g><path d="M 6.609375 0 L 1.015625 0 L 1.015625 -9.421875 L 6.609375 -9.421875 L 6.609375 -7.375 L 3.5625 -7.375 L 3.5625 -5.890625 L 6.375 -5.890625 L 6.375 -3.84375 L 3.5625 -3.84375 L 3.5625 -2.078125 L 6.609375 -2.078125 Z M 6.609375 0 "/></g></g></g><g fill="#000000" fill-opacity="1"><g transform="translate(257.125033, 251.61013)"><g><path d="M 3.5625 -3.421875 L 3.5625 0 L 1.015625 0 L 1.015625 -9.421875 L 4.109375 -9.421875 C 6.660156 -9.421875 7.9375 -8.488281 7.9375 -6.625 C 7.9375 -5.539062 7.40625 -4.703125 6.34375 -4.109375 L 9.078125 0 L 6.203125 0 L 4.203125 -3.421875 Z M 3.5625 -5.34375 L 4.03125 -5.34375 C 4.925781 -5.34375 5.375 -5.734375 5.375 -6.515625 C 5.375 -7.160156 4.9375 -7.484375 4.0625 -7.484375 L 3.5625 -7.484375 Z M 3.5625 -5.34375 "/></g></g></g><g fill="#000000" fill-opacity="1"><g transform="translate(269.490465, 251.61013)"><g><path d="M 5.203125 -7.46875 C 4.597656 -7.46875 4.125 -7.21875 3.78125 -6.71875 C 3.445312 -6.21875 3.28125 -5.535156 3.28125 -4.671875 C 3.28125 -2.859375 3.96875 -1.953125 5.34375 -1.953125 C 5.757812 -1.953125 6.160156 -2.007812 6.546875 -2.125 C 6.941406 -2.238281 7.335938 -2.378906 7.734375 -2.546875 L 7.734375 -0.390625 C 6.953125 -0.046875 6.066406 0.125 5.078125 0.125 C 3.648438 0.125 2.554688 -0.285156 1.796875 -1.109375 C 1.046875 -1.929688 0.671875 -3.125 0.671875 -4.6875 C 0.671875 -5.65625 0.851562 -6.507812 1.21875 -7.25 C 1.582031 -7.988281 2.109375 -8.554688 2.796875 -8.953125 C 3.492188 -9.347656 4.304688 -9.546875 5.234375 -9.546875 C 6.253906 -9.546875 7.226562 -9.328125 8.15625 -8.890625 L 7.375 -6.890625 C 7.019531 -7.046875 6.671875 -7.179688 6.328125 -7.296875 C 5.984375 -7.410156 5.609375 -7.46875 5.203125 -7.46875 Z M 5.203125 -7.46875 "/></g></g></g><g fill="#000000" fill-opacity="1"><g transform="translate(281.488954, 251.61013)"><g><path d="M 1.015625 0 L 1.015625 -9.421875 L 3.578125 -9.421875 L 3.578125 0 Z M 1.015625 0 "/></g></g></g><g fill="#000000" fill-opacity="1"><g transform="translate(289.522065, 251.61013)"><g><path d="M 6.796875 0 L 6.328125 -1.765625 L 3.265625 -1.765625 L 2.796875 0 L 0 0 L 3.078125 -9.453125 L 6.46875 -9.453125 L 9.578125 0 Z M 5.796875 -3.84375 L 5.390625 -5.390625 C 5.296875 -5.734375 5.179688 -6.175781 5.046875 -6.71875 C 4.910156 -7.269531 4.820312 -7.664062 4.78125 -7.90625 C 4.738281 -7.6875 4.660156 -7.320312 4.546875 -6.8125 C 4.441406 -6.3125 4.191406 -5.320312 3.796875 -3.84375 Z M 5.796875 -3.84375 "/></g></g></g><g fill="#000000" fill-opacity="1"><g transform="translate(302.537659, 251.61013)"><g><path d="M 1.015625 0 L 1.015625 -9.421875 L 3.5625 -9.421875 L 3.5625 -2.046875 L 7.1875 -2.046875 L 7.1875 0 Z M 1.015625 0 "/></g></g></g></svg>